<mxfile host="app.diagrams.net" modified="2021-11-30T20:39:52.205Z" agent="5.0 (Windows NT 10.0; Win64; x64) AppleWebKit/537.36 (KHTML, like Gecko) Chrome/96.0.4664.45 Safari/537.36" etag="Vf14AhDOY6td6sAmkUKy" version="15.8.6" type="github" pages="6">
  <diagram id="aEuiQMqjnmJGIBwZCXug" name="Schéma entités-associations">
    <mxGraphModel grid="1" gridSize="10" guides="1" tooltips="1" connect="1" arrows="1" page="1" fold="1" pageScale="1" pageWidth="1169" pageHeight="827" math="0" shadow="0">
      <root>
        <mxCell id="0" />
        <mxCell id="1" parent="0" />
        <mxCell id="qEJAQcxtMuj5-wfoeOrb-2" value="Locataire" style="swimlane;fontSize=20;" parent="1" vertex="1">
          <mxGeometry x="310" y="470" width="200" height="183.75" as="geometry" />
        </mxCell>
        <mxCell id="qEJAQcxtMuj5-wfoeOrb-3" value="&lt;p class=&quot;MsoListParagraphCxSpFirst&quot; style=&quot;margin: 0cm 0cm 0cm 36pt ; line-height: 15.6933px ; font-size: 11pt ; font-family: &amp;#34;calibri&amp;#34; , sans-serif ; text-indent: -18pt&quot;&gt;&lt;/p&gt;&lt;font style=&quot;font-size: 18px&quot;&gt;ID de Locataire &lt;b&gt;string&lt;/b&gt;&lt;br&gt;&lt;span lang=&quot;FR&quot; style=&quot;text-indent: -18pt&quot;&gt;&lt;font style=&quot;font-size: 18px&quot;&gt;Nº de compte &lt;b&gt;int&lt;/b&gt;&lt;/font&gt;&lt;/span&gt;&lt;br&gt;Nom &lt;b&gt;string&lt;/b&gt;&lt;br&gt;Numéro de tel &lt;b&gt;int&lt;/b&gt;&lt;br&gt;ID du bien &lt;b&gt;string&lt;/b&gt;&lt;br&gt;Adresse email&lt;b&gt; string&lt;br&gt;&lt;/b&gt;&lt;/font&gt;" style="text;html=1;strokeColor=none;fillColor=none;align=left;verticalAlign=middle;whiteSpace=wrap;rounded=0;" parent="qEJAQcxtMuj5-wfoeOrb-2" vertex="1">
          <mxGeometry y="35" width="190" height="130" as="geometry" />
        </mxCell>
        <mxCell id="qEJAQcxtMuj5-wfoeOrb-4" value="Propriétaire" style="swimlane;fontSize=20;" parent="1" vertex="1">
          <mxGeometry x="1604" y="462.01" width="240" height="195" as="geometry" />
        </mxCell>
        <mxCell id="T949mY5luPI5WS0-JxJI-1" value="&lt;p class=&quot;MsoListParagraphCxSpFirst&quot; style=&quot;margin: 0cm 0cm 0cm 36pt ; line-height: 15.6933px ; font-size: 11pt ; font-family: &amp;#34;calibri&amp;#34; , sans-serif ; text-indent: -18pt&quot;&gt;&lt;/p&gt;&lt;p class=&quot;MsoListParagraphCxSpFirst&quot; style=&quot;margin: 0cm 0cm 0cm 36pt ; line-height: 15.6933px ; font-size: 11pt ; font-family: &amp;#34;calibri&amp;#34; , sans-serif ; text-indent: -18pt ; display: inline&quot;&gt;&lt;/p&gt;&lt;div style=&quot;font-size: 18px&quot;&gt;&lt;span style=&quot;text-indent: -18pt&quot;&gt;&lt;font style=&quot;font-size: 18px&quot;&gt;ID de propriétaire &lt;b&gt;string&lt;/b&gt;&lt;/font&gt;&lt;/span&gt;&lt;/div&gt;&lt;div style=&quot;font-size: 18px&quot;&gt;Nº de compte &lt;b&gt;int&lt;/b&gt;&lt;/div&gt;&lt;div style=&quot;font-size: 18px&quot;&gt;&lt;span style=&quot;font-family: &amp;#34;calibri&amp;#34; , sans-serif ; text-indent: -18pt&quot;&gt;Nom &lt;b&gt;string&amp;nbsp;&lt;/b&gt;&lt;/span&gt;&lt;/div&gt;&lt;div style=&quot;font-size: 18px&quot;&gt;&lt;span style=&quot;font-family: &amp;#34;calibri&amp;#34; , sans-serif ; text-indent: -18pt&quot;&gt;Liste de biens &lt;b&gt;string&lt;/b&gt;&lt;/span&gt;&lt;/div&gt;&lt;div style=&quot;font-size: 18px&quot;&gt;&lt;span style=&quot;font-family: &amp;#34;calibri&amp;#34; , sans-serif ; text-indent: -18pt&quot;&gt;(ID du bien, adresse)&lt;/span&gt;&lt;/div&gt;&lt;div style=&quot;font-size: 18px&quot;&gt;&lt;span style=&quot;font-family: &amp;#34;calibri&amp;#34; , sans-serif ; text-indent: -18pt&quot;&gt;Numéro de Tel &lt;b&gt;int&lt;/b&gt;&lt;/span&gt;&lt;/div&gt;&lt;div style=&quot;text-indent: -24px ; font-size: 18px&quot;&gt;&lt;font face=&quot;calibri, sans-serif&quot;&gt;&amp;nbsp; &amp;nbsp; &amp;nbsp;Adresse email &lt;b&gt;string&lt;/b&gt;&lt;/font&gt;&lt;/div&gt;" style="text;html=1;strokeColor=none;fillColor=none;align=left;verticalAlign=middle;whiteSpace=wrap;rounded=0;" parent="qEJAQcxtMuj5-wfoeOrb-4" vertex="1">
          <mxGeometry x="10" y="34.87000000000001" width="220" height="130" as="geometry" />
        </mxCell>
        <mxCell id="qEJAQcxtMuj5-wfoeOrb-6" value="Bien" style="swimlane;startSize=40;fontSize=20;" parent="1" vertex="1">
          <mxGeometry x="1000" y="440" width="240.5" height="239.01" as="geometry" />
        </mxCell>
        <mxCell id="qEJAQcxtMuj5-wfoeOrb-7" value="&lt;p class=&quot;MsoListParagraphCxSpFirst&quot; style=&quot;margin: 0cm 0cm 0cm 36pt ; line-height: 15.6933px ; font-size: 11pt ; font-family: &amp;#34;calibri&amp;#34; , sans-serif ; text-indent: -18pt&quot;&gt;&lt;/p&gt;&lt;p class=&quot;MsoListParagraphCxSpFirst&quot; style=&quot;margin: 0cm 0cm 0cm 36pt ; line-height: 15.6933px ; font-size: 11pt ; font-family: &amp;#34;calibri&amp;#34; , sans-serif ; text-indent: -18pt ; display: inline&quot;&gt;&lt;/p&gt;&lt;p class=&quot;MsoListParagraphCxSpFirst&quot; style=&quot;text-align: left ; margin: 0cm 0cm 0cm 36pt ; line-height: 15.6933px ; font-family: &amp;#34;calibri&amp;#34; , sans-serif ; text-indent: -18pt ; font-size: 18px&quot;&gt;&lt;span lang=&quot;FR&quot;&gt;&lt;font style=&quot;font-size: 18px&quot;&gt;ID du bien &lt;b&gt;string&lt;/b&gt;&amp;nbsp;&lt;/font&gt;&lt;/span&gt;&lt;/p&gt;&lt;p class=&quot;MsoListParagraphCxSpFirst&quot; style=&quot;text-align: left ; margin: 0cm 0cm 0cm 36pt ; line-height: 15.6933px ; font-family: &amp;#34;calibri&amp;#34; , sans-serif ; text-indent: -18pt ; font-size: 18px&quot;&gt;&lt;span style=&quot;text-indent: -18pt&quot;&gt;Statut &lt;b&gt;string&lt;/b&gt;&lt;/span&gt;&lt;/p&gt;&lt;p class=&quot;MsoListParagraphCxSpMiddle&quot; style=&quot;text-align: left ; margin: 0cm 0cm 0cm 36pt ; line-height: 15.6933px ; font-family: &amp;#34;calibri&amp;#34; , sans-serif ; text-indent: -18pt ; font-size: 18px&quot;&gt;&lt;span lang=&quot;FR&quot;&gt;&lt;font style=&quot;font-size: 18px&quot;&gt;Adresse&amp;nbsp;&lt;b&gt;&amp;nbsp;string&amp;nbsp;&lt;/b&gt;&lt;/font&gt;&lt;/span&gt;&lt;/p&gt;&lt;p class=&quot;MsoListParagraphCxSpMiddle&quot; style=&quot;text-align: left ; margin: 0cm 0cm 0cm 36pt ; line-height: 15.6933px ; font-family: &amp;#34;calibri&amp;#34; , sans-serif ; text-indent: -18pt ; font-size: 18px&quot;&gt;&lt;span lang=&quot;FR&quot;&gt;&lt;font style=&quot;font-size: 18px&quot;&gt;Loyer &lt;b&gt;int&lt;/b&gt;&lt;/font&gt;&lt;/span&gt;&lt;/p&gt;&lt;p class=&quot;MsoListParagraphCxSpMiddle&quot; style=&quot;text-align: left ; margin: 0cm 0cm 0cm 36pt ; line-height: 15.6933px ; font-family: &amp;#34;calibri&amp;#34; , sans-serif ; text-indent: -18pt ; font-size: 18px&quot;&gt;&lt;span lang=&quot;FR&quot;&gt;&lt;font style=&quot;font-size: 18px&quot;&gt;Charges &lt;b&gt;int&lt;/b&gt;&lt;/font&gt;&lt;/span&gt;&lt;/p&gt;&lt;p class=&quot;MsoListParagraphCxSpMiddle&quot; style=&quot;text-align: left ; margin: 0cm 0cm 0cm 36pt ; line-height: 15.6933px ; font-family: &amp;#34;calibri&amp;#34; , sans-serif ; text-indent: -18pt ; font-size: 18px&quot;&gt;&lt;span lang=&quot;FR&quot;&gt;&lt;font style=&quot;font-size: 18px&quot;&gt;Types de bails &lt;b&gt;string&lt;/b&gt;&lt;/font&gt;&lt;/span&gt;&lt;/p&gt;&lt;p class=&quot;MsoListParagraphCxSpMiddle&quot; style=&quot;text-align: left ; margin: 0cm 0cm 0cm 36pt ; line-height: 15.6933px ; font-family: &amp;#34;calibri&amp;#34; , sans-serif ; text-indent: -18pt ; font-size: 18px&quot;&gt;&lt;span lang=&quot;FR&quot;&gt;&lt;font style=&quot;font-size: 18px&quot;&gt;Garniture &lt;b&gt;string&lt;/b&gt;&lt;/font&gt;&lt;/span&gt;&lt;/p&gt;&lt;p class=&quot;MsoListParagraphCxSpMiddle&quot; style=&quot;text-align: left ; margin: 0cm 0cm 0cm 36pt ; line-height: 15.6933px ; font-family: &amp;#34;calibri&amp;#34; , sans-serif ; text-indent: -18pt ; font-size: 18px&quot;&gt;&lt;span lang=&quot;FR&quot;&gt;&lt;font style=&quot;font-size: 18px&quot;&gt;Description &lt;b&gt;string&lt;/b&gt;&lt;/font&gt;&lt;/span&gt;&lt;/p&gt;&lt;p class=&quot;MsoListParagraphCxSpMiddle&quot; style=&quot;text-align: left ; margin: 0cm 0cm 0cm 36pt ; line-height: 15.6933px ; font-family: &amp;#34;calibri&amp;#34; , sans-serif ; text-indent: -18pt ; font-size: 18px&quot;&gt;&lt;span lang=&quot;FR&quot;&gt;&lt;font style=&quot;font-size: 18px&quot;&gt;Caution &lt;b&gt;int&lt;/b&gt;&lt;/font&gt;&lt;/span&gt;&lt;/p&gt;&lt;p class=&quot;MsoListParagraphCxSpMiddle&quot; style=&quot;text-align: left ; margin: 0cm 0cm 0cm 36pt ; line-height: 15.6933px ; font-family: &amp;#34;calibri&amp;#34; , sans-serif ; text-indent: -18pt ; font-size: 18px&quot;&gt;&lt;span lang=&quot;FR&quot;&gt;&lt;font style=&quot;font-size: 18px&quot;&gt;Extérieur &lt;b&gt;string&lt;/b&gt;&lt;/font&gt;&lt;/span&gt;&lt;/p&gt;&lt;p class=&quot;MsoListParagraphCxSpLast&quot; style=&quot;text-align: left ; margin: 0cm 0cm 8pt 36pt ; line-height: 15.6933px ; font-family: &amp;#34;calibri&amp;#34; , sans-serif ; text-indent: -18pt ; font-size: 18px&quot;&gt;&lt;span lang=&quot;FR&quot;&gt;&lt;font style=&quot;font-size: 18px&quot;&gt;PEB &lt;b&gt;string&lt;/b&gt;&lt;/font&gt;&lt;/span&gt;&lt;/p&gt;" style="text;html=1;strokeColor=none;fillColor=none;align=center;verticalAlign=middle;whiteSpace=wrap;rounded=0;spacingTop=0;" parent="qEJAQcxtMuj5-wfoeOrb-6" vertex="1">
          <mxGeometry x="10.75" y="39.01" width="204.5" height="200" as="geometry" />
        </mxCell>
        <mxCell id="qEJAQcxtMuj5-wfoeOrb-8" value="Maison" style="swimlane;fontSize=20;startSize=39;" parent="1" vertex="1">
          <mxGeometry x="740.5" y="39" width="204.5" height="160" as="geometry" />
        </mxCell>
        <mxCell id="qEJAQcxtMuj5-wfoeOrb-9" value="&lt;p class=&quot;MsoListParagraphCxSpFirst&quot; style=&quot;margin: 0cm 0cm 0cm 36pt ; line-height: 15.6933px ; font-size: 20px ; font-family: &amp;#34;calibri&amp;#34; , sans-serif ; text-indent: -18pt&quot;&gt;&lt;/p&gt;&lt;p class=&quot;MsoListParagraphCxSpFirst&quot; style=&quot;margin: 0cm 0cm 0cm 36pt ; line-height: 15.6933px ; text-indent: -18pt ; display: inline ; font-size: 20px&quot;&gt;&lt;/p&gt;&lt;div style=&quot;text-indent: -24px ; font-size: 18px&quot;&gt;&lt;font face=&quot;calibri, sans-serif&quot; style=&quot;font-size: 18px&quot;&gt;Nbr chambres &lt;b&gt;int&lt;/b&gt;&lt;/font&gt;&lt;/div&gt;&lt;div style=&quot;text-indent: -24px ; font-size: 18px&quot;&gt;&lt;font face=&quot;calibri, sans-serif&quot; style=&quot;font-size: 18px&quot;&gt;Nbr étages &lt;b&gt;int&lt;/b&gt;&amp;nbsp;&amp;nbsp;&lt;/font&gt;&lt;/div&gt;&lt;div style=&quot;text-indent: -24px ; font-size: 18px&quot;&gt;&lt;span style=&quot;font-family: &amp;#34;calibri&amp;#34; , sans-serif&quot;&gt;Garage &lt;b&gt;string&lt;/b&gt;&lt;/span&gt;&lt;/div&gt;&lt;p style=&quot;font-size: 20px&quot;&gt;&lt;/p&gt;" style="text;html=1;strokeColor=none;fillColor=none;align=left;verticalAlign=middle;whiteSpace=wrap;rounded=0;fontSize=20;" parent="qEJAQcxtMuj5-wfoeOrb-8" vertex="1">
          <mxGeometry x="50" y="49.74" width="124" height="80" as="geometry" />
        </mxCell>
        <mxCell id="qEJAQcxtMuj5-wfoeOrb-10" value="Appart" style="swimlane;rounded=0;startSize=40;fontSize=20;" parent="1" vertex="1">
          <mxGeometry x="1020.5" y="40" width="200" height="160" as="geometry" />
        </mxCell>
        <mxCell id="qEJAQcxtMuj5-wfoeOrb-11" value="&lt;p class=&quot;MsoListParagraphCxSpFirst&quot; style=&quot;margin: 0cm 0cm 0cm 36pt ; line-height: 15.6933px ; font-size: 11pt ; font-family: &amp;#34;calibri&amp;#34; , sans-serif ; text-indent: -18pt&quot;&gt;&lt;/p&gt;&lt;p class=&quot;MsoListParagraphCxSpFirst&quot; style=&quot;margin: 0cm 0cm 0cm 36pt ; line-height: 15.6933px ; text-indent: -18pt ; display: inline&quot;&gt;&lt;/p&gt;&lt;div style=&quot;text-indent: -24px ; font-size: 20px&quot;&gt;&lt;font face=&quot;calibri, sans-serif&quot; style=&quot;font-size: 20px&quot;&gt;Nbr chambres &lt;b&gt;int&lt;/b&gt;&lt;/font&gt;&lt;/div&gt;&lt;div style=&quot;text-indent: -24px ; font-size: 20px&quot;&gt;&lt;font face=&quot;calibri, sans-serif&quot; style=&quot;font-size: 20px&quot;&gt;Nº étage &lt;b&gt;int&lt;/b&gt;&lt;/font&gt;&lt;/div&gt;&lt;div style=&quot;text-indent: -24px ; font-size: 20px&quot;&gt;&lt;font face=&quot;calibri, sans-serif&quot; style=&quot;font-size: 20px&quot;&gt;Garage &lt;b&gt;string&lt;/b&gt;&lt;/font&gt;&lt;/div&gt;&lt;p&gt;&lt;/p&gt;" style="text;html=1;strokeColor=none;fillColor=none;align=left;verticalAlign=middle;whiteSpace=wrap;rounded=0;" parent="qEJAQcxtMuj5-wfoeOrb-10" vertex="1">
          <mxGeometry x="40" y="56.87" width="154.75" height="80" as="geometry" />
        </mxCell>
        <mxCell id="qEJAQcxtMuj5-wfoeOrb-12" value="Studio" style="swimlane;startSize=40;fontSize=20;" parent="1" vertex="1">
          <mxGeometry x="1300.5" y="40" width="159.5" height="160" as="geometry" />
        </mxCell>
        <mxCell id="qEJAQcxtMuj5-wfoeOrb-13" value="&lt;p class=&quot;MsoListParagraphCxSpFirst&quot; style=&quot;margin: 0cm 0cm 0cm 36pt ; line-height: 15.6933px ; font-size: 11pt ; font-family: &amp;#34;calibri&amp;#34; , sans-serif ; text-indent: -18pt&quot;&gt;&lt;/p&gt;&lt;p class=&quot;MsoListParagraphCxSpFirst&quot; style=&quot;margin: 0cm 0cm 0cm 36pt ; line-height: 15.6933px ; text-indent: -18pt ; display: inline&quot;&gt;&lt;/p&gt;&lt;div style=&quot;text-indent: -24px ; font-size: 20px&quot;&gt;&lt;span style=&quot;font-family: &amp;#34;calibri&amp;#34; , sans-serif&quot;&gt;Nº étage &lt;b&gt;int&lt;/b&gt;&lt;/span&gt;&lt;br&gt;&lt;/div&gt;&lt;p&gt;&lt;/p&gt;" style="text;html=1;strokeColor=none;fillColor=none;align=left;verticalAlign=middle;whiteSpace=wrap;rounded=0;" parent="qEJAQcxtMuj5-wfoeOrb-12" vertex="1">
          <mxGeometry x="40" y="56.87" width="89.5" height="63.74" as="geometry" />
        </mxCell>
        <mxCell id="sJNQ7jVbWBtjgiGKwQ-Y-1" value="" style="triangle;whiteSpace=wrap;html=1;fontSize=20;rotation=-90;" parent="1" vertex="1">
          <mxGeometry x="1085.25" y="270" width="70.5" height="80" as="geometry" />
        </mxCell>
        <mxCell id="sJNQ7jVbWBtjgiGKwQ-Y-4" value="t,e" style="text;html=1;strokeColor=none;fillColor=none;align=center;verticalAlign=middle;whiteSpace=wrap;rounded=0;fontSize=20;" parent="1" vertex="1">
          <mxGeometry x="1100.5" y="310" width="40" height="20" as="geometry" />
        </mxCell>
        <mxCell id="sJNQ7jVbWBtjgiGKwQ-Y-5" value="" style="endArrow=classic;html=1;fontSize=20;exitX=0;exitY=0.5;exitDx=0;exitDy=0;entryX=0.5;entryY=0;entryDx=0;entryDy=0;" parent="1" source="sJNQ7jVbWBtjgiGKwQ-Y-1" target="qEJAQcxtMuj5-wfoeOrb-6" edge="1">
          <mxGeometry width="50" height="50" relative="1" as="geometry">
            <mxPoint x="1080" y="620" as="sourcePoint" />
            <mxPoint x="1190" y="430" as="targetPoint" />
          </mxGeometry>
        </mxCell>
        <mxCell id="sJNQ7jVbWBtjgiGKwQ-Y-6" value="" style="endArrow=none;html=1;fontSize=20;strokeColor=#000000;fillColor=#000000;exitX=0.5;exitY=1;exitDx=0;exitDy=0;entryX=1;entryY=0.5;entryDx=0;entryDy=0;" parent="1" source="qEJAQcxtMuj5-wfoeOrb-8" target="sJNQ7jVbWBtjgiGKwQ-Y-1" edge="1">
          <mxGeometry width="50" height="50" relative="1" as="geometry">
            <mxPoint x="910" y="410" as="sourcePoint" />
            <mxPoint x="960" y="360" as="targetPoint" />
          </mxGeometry>
        </mxCell>
        <mxCell id="sJNQ7jVbWBtjgiGKwQ-Y-7" value="" style="endArrow=none;html=1;fontSize=20;strokeColor=#000000;fillColor=#000000;entryX=0.5;entryY=1;entryDx=0;entryDy=0;exitX=1;exitY=0.5;exitDx=0;exitDy=0;" parent="1" source="sJNQ7jVbWBtjgiGKwQ-Y-1" target="qEJAQcxtMuj5-wfoeOrb-10" edge="1">
          <mxGeometry width="50" height="50" relative="1" as="geometry">
            <mxPoint x="910" y="410" as="sourcePoint" />
            <mxPoint x="960" y="360" as="targetPoint" />
          </mxGeometry>
        </mxCell>
        <mxCell id="sJNQ7jVbWBtjgiGKwQ-Y-8" value="" style="endArrow=none;html=1;fontSize=20;strokeColor=#000000;fillColor=#000000;entryX=0.5;entryY=1;entryDx=0;entryDy=0;exitX=1;exitY=0.5;exitDx=0;exitDy=0;" parent="1" source="sJNQ7jVbWBtjgiGKwQ-Y-1" target="qEJAQcxtMuj5-wfoeOrb-12" edge="1">
          <mxGeometry width="50" height="50" relative="1" as="geometry">
            <mxPoint x="910" y="410" as="sourcePoint" />
            <mxPoint x="960" y="360" as="targetPoint" />
          </mxGeometry>
        </mxCell>
        <mxCell id="sJNQ7jVbWBtjgiGKwQ-Y-9" value="" style="endArrow=none;html=1;fontSize=20;strokeColor=#000000;fillColor=#000000;exitX=1;exitY=0.5;exitDx=0;exitDy=0;entryX=0;entryY=0.5;entryDx=0;entryDy=0;startArrow=none;" parent="1" source="sJNQ7jVbWBtjgiGKwQ-Y-36" target="qEJAQcxtMuj5-wfoeOrb-6" edge="1">
          <mxGeometry width="50" height="50" relative="1" as="geometry">
            <mxPoint x="930" y="510" as="sourcePoint" />
            <mxPoint x="960" y="530" as="targetPoint" />
          </mxGeometry>
        </mxCell>
        <mxCell id="sJNQ7jVbWBtjgiGKwQ-Y-13" value="" style="endArrow=none;html=1;fontSize=20;strokeColor=#000000;fillColor=#000000;exitX=1;exitY=0.5;exitDx=0;exitDy=0;entryX=0;entryY=0.5;entryDx=0;entryDy=0;startArrow=none;" parent="1" source="sJNQ7jVbWBtjgiGKwQ-Y-34" target="YQ4cm8M8ITQVSyviY8Ld-4" edge="1">
          <mxGeometry width="50" height="50" relative="1" as="geometry">
            <mxPoint x="560" y="561.8750000000001" as="sourcePoint" />
            <mxPoint x="660" y="553.75" as="targetPoint" />
          </mxGeometry>
        </mxCell>
        <mxCell id="sJNQ7jVbWBtjgiGKwQ-Y-15" value="" style="rounded=1;whiteSpace=wrap;html=1;fontSize=20;" parent="1" vertex="1">
          <mxGeometry x="1360" y="529.5" width="120" height="60" as="geometry" />
        </mxCell>
        <mxCell id="sJNQ7jVbWBtjgiGKwQ-Y-16" value="" style="endArrow=none;html=1;fontSize=20;strokeColor=#000000;fillColor=#000000;entryX=0;entryY=0.5;entryDx=0;entryDy=0;exitX=1;exitY=0.5;exitDx=0;exitDy=0;startArrow=none;" parent="1" source="sJNQ7jVbWBtjgiGKwQ-Y-24" target="sJNQ7jVbWBtjgiGKwQ-Y-15" edge="1">
          <mxGeometry width="50" height="50" relative="1" as="geometry">
            <mxPoint x="1252.75" y="540" as="sourcePoint" />
            <mxPoint x="1480" y="540" as="targetPoint" />
          </mxGeometry>
        </mxCell>
        <mxCell id="sJNQ7jVbWBtjgiGKwQ-Y-18" value="Posséder" style="text;html=1;strokeColor=none;fillColor=none;align=center;verticalAlign=middle;whiteSpace=wrap;rounded=0;fontSize=20;" parent="1" vertex="1">
          <mxGeometry x="1400" y="549.5" width="40" height="20" as="geometry" />
        </mxCell>
        <mxCell id="sJNQ7jVbWBtjgiGKwQ-Y-24" value="1,1" style="text;html=1;strokeColor=none;fillColor=none;align=center;verticalAlign=middle;whiteSpace=wrap;rounded=0;fontSize=20;" parent="1" vertex="1">
          <mxGeometry x="1290" y="550" width="40" height="20" as="geometry" />
        </mxCell>
        <mxCell id="sJNQ7jVbWBtjgiGKwQ-Y-25" value="" style="endArrow=none;html=1;fontSize=20;strokeColor=#000000;fillColor=#000000;entryX=0;entryY=0.5;entryDx=0;entryDy=0;exitX=1;exitY=0.5;exitDx=0;exitDy=0;" parent="1" source="qEJAQcxtMuj5-wfoeOrb-6" target="sJNQ7jVbWBtjgiGKwQ-Y-24" edge="1">
          <mxGeometry width="50" height="50" relative="1" as="geometry">
            <mxPoint x="1240.5" y="559.5050000000001" as="sourcePoint" />
            <mxPoint x="1370" y="559.51" as="targetPoint" />
          </mxGeometry>
        </mxCell>
        <mxCell id="sJNQ7jVbWBtjgiGKwQ-Y-30" value="" style="endArrow=none;html=1;fontSize=20;strokeColor=#000000;fillColor=#000000;entryX=0;entryY=0.5;entryDx=0;entryDy=0;exitX=1;exitY=0.5;exitDx=0;exitDy=0;startArrow=none;" parent="1" source="sJNQ7jVbWBtjgiGKwQ-Y-31" target="qEJAQcxtMuj5-wfoeOrb-4" edge="1">
          <mxGeometry width="50" height="50" relative="1" as="geometry">
            <mxPoint x="1240" y="410" as="sourcePoint" />
            <mxPoint x="1290" y="360" as="targetPoint" />
          </mxGeometry>
        </mxCell>
        <mxCell id="sJNQ7jVbWBtjgiGKwQ-Y-31" value="0,N" style="text;html=1;strokeColor=none;fillColor=none;align=center;verticalAlign=middle;whiteSpace=wrap;rounded=0;fontSize=20;" parent="1" vertex="1">
          <mxGeometry x="1520" y="550" width="40" height="20" as="geometry" />
        </mxCell>
        <mxCell id="sJNQ7jVbWBtjgiGKwQ-Y-32" value="" style="endArrow=none;html=1;fontSize=20;strokeColor=#000000;fillColor=#000000;entryX=0;entryY=0.5;entryDx=0;entryDy=0;exitX=1;exitY=0.5;exitDx=0;exitDy=0;" parent="1" source="sJNQ7jVbWBtjgiGKwQ-Y-15" target="sJNQ7jVbWBtjgiGKwQ-Y-31" edge="1">
          <mxGeometry width="50" height="50" relative="1" as="geometry">
            <mxPoint x="1480" y="559.5" as="sourcePoint" />
            <mxPoint x="1600" y="559.51" as="targetPoint" />
          </mxGeometry>
        </mxCell>
        <mxCell id="sJNQ7jVbWBtjgiGKwQ-Y-34" value="1,N" style="text;html=1;strokeColor=none;fillColor=none;align=center;verticalAlign=middle;whiteSpace=wrap;rounded=0;fontSize=20;" parent="1" vertex="1">
          <mxGeometry x="590" y="551.87" width="40" height="20" as="geometry" />
        </mxCell>
        <mxCell id="sJNQ7jVbWBtjgiGKwQ-Y-35" value="" style="endArrow=none;html=1;fontSize=20;strokeColor=#000000;fillColor=#000000;exitX=1;exitY=0.5;exitDx=0;exitDy=0;entryX=0;entryY=0.5;entryDx=0;entryDy=0;" parent="1" source="qEJAQcxtMuj5-wfoeOrb-2" target="sJNQ7jVbWBtjgiGKwQ-Y-34" edge="1">
          <mxGeometry width="50" height="50" relative="1" as="geometry">
            <mxPoint x="509.9999999999998" y="561.8749999999999" as="sourcePoint" />
            <mxPoint x="630" y="561.87" as="targetPoint" />
          </mxGeometry>
        </mxCell>
        <mxCell id="sJNQ7jVbWBtjgiGKwQ-Y-36" value="0,N" style="text;html=1;strokeColor=none;fillColor=none;align=center;verticalAlign=middle;whiteSpace=wrap;rounded=0;fontSize=20;" parent="1" vertex="1">
          <mxGeometry x="905" y="550" width="40" height="20" as="geometry" />
        </mxCell>
        <mxCell id="sJNQ7jVbWBtjgiGKwQ-Y-37" value="" style="endArrow=none;html=1;fontSize=20;strokeColor=#000000;fillColor=#000000;exitX=1;exitY=0.5;exitDx=0;exitDy=0;entryX=0;entryY=0.5;entryDx=0;entryDy=0;startArrow=none;" parent="1" source="YQ4cm8M8ITQVSyviY8Ld-4" target="sJNQ7jVbWBtjgiGKwQ-Y-36" edge="1">
          <mxGeometry width="50" height="50" relative="1" as="geometry">
            <mxPoint x="860" y="553.75" as="sourcePoint" />
            <mxPoint x="1000" y="559.5050000000001" as="targetPoint" />
          </mxGeometry>
        </mxCell>
        <mxCell id="YQ4cm8M8ITQVSyviY8Ld-1" value="Contrat" style="swimlane;fontSize=18;align=center;" parent="1" vertex="1">
          <mxGeometry x="1020.25" y="790" width="200" height="200" as="geometry" />
        </mxCell>
        <mxCell id="GDEWXskqs7vaDj0vc1d0-2" value="&lt;font style=&quot;font-size: 18px&quot;&gt;Loyer&amp;nbsp; &lt;b&gt;int&lt;/b&gt;&lt;br&gt;Début bail &lt;b&gt;int&amp;nbsp;&lt;/b&gt;&lt;br&gt;Fin bail &lt;b&gt;int&amp;nbsp;&lt;br&gt;&lt;/b&gt;Nbr locataire &lt;b&gt;int&lt;/b&gt;&lt;br&gt;Type contrat &lt;b&gt;string&lt;/b&gt;&amp;nbsp;&lt;br&gt;&lt;br&gt;&lt;/font&gt;" style="text;html=1;align=left;verticalAlign=middle;resizable=0;points=[];autosize=1;strokeColor=none;fillColor=none;" parent="YQ4cm8M8ITQVSyviY8Ld-1" vertex="1">
          <mxGeometry x="15.25" y="70" width="170" height="100" as="geometry" />
        </mxCell>
        <mxCell id="YQ4cm8M8ITQVSyviY8Ld-4" value="Louer" style="rounded=1;whiteSpace=wrap;html=1;fontSize=20;" parent="1" vertex="1">
          <mxGeometry x="710" y="530" width="120" height="60" as="geometry" />
        </mxCell>
        <mxCell id="YQ4cm8M8ITQVSyviY8Ld-5" value="Signer" style="rounded=1;whiteSpace=wrap;html=1;fontSize=20;" parent="1" vertex="1">
          <mxGeometry x="410" y="860" width="120" height="60" as="geometry" />
        </mxCell>
        <mxCell id="YQ4cm8M8ITQVSyviY8Ld-6" value="1,N" style="endArrow=none;html=1;rounded=0;fontSize=18;exitX=0.5;exitY=1;exitDx=0;exitDy=0;entryX=0;entryY=0.5;entryDx=0;entryDy=0;" parent="1" source="qEJAQcxtMuj5-wfoeOrb-2" target="YQ4cm8M8ITQVSyviY8Ld-5" edge="1">
          <mxGeometry width="50" height="50" relative="1" as="geometry">
            <mxPoint x="590" y="790" as="sourcePoint" />
            <mxPoint x="640" y="740" as="targetPoint" />
          </mxGeometry>
        </mxCell>
        <mxCell id="YQ4cm8M8ITQVSyviY8Ld-7" value="1,N" style="endArrow=none;html=1;rounded=0;fontSize=18;entryX=0;entryY=0.5;entryDx=0;entryDy=0;exitX=1;exitY=0.5;exitDx=0;exitDy=0;" parent="1" source="YQ4cm8M8ITQVSyviY8Ld-5" target="YQ4cm8M8ITQVSyviY8Ld-1" edge="1">
          <mxGeometry width="50" height="50" relative="1" as="geometry">
            <mxPoint x="890" y="1000" as="sourcePoint" />
            <mxPoint x="940" y="950" as="targetPoint" />
          </mxGeometry>
        </mxCell>
        <mxCell id="YQ4cm8M8ITQVSyviY8Ld-8" value="Signer" style="rounded=1;whiteSpace=wrap;html=1;fontSize=20;" parent="1" vertex="1">
          <mxGeometry x="1604" y="860" width="120" height="60" as="geometry" />
        </mxCell>
        <mxCell id="YQ4cm8M8ITQVSyviY8Ld-9" value="1,1" style="endArrow=none;html=1;rounded=0;fontSize=18;exitX=1;exitY=0.5;exitDx=0;exitDy=0;entryX=0;entryY=0.5;entryDx=0;entryDy=0;" parent="1" source="YQ4cm8M8ITQVSyviY8Ld-1" target="YQ4cm8M8ITQVSyviY8Ld-8" edge="1">
          <mxGeometry width="50" height="50" relative="1" as="geometry">
            <mxPoint x="1460" y="940" as="sourcePoint" />
            <mxPoint x="1510" y="890" as="targetPoint" />
          </mxGeometry>
        </mxCell>
        <mxCell id="YQ4cm8M8ITQVSyviY8Ld-10" value="0,N" style="endArrow=none;html=1;rounded=0;fontSize=18;entryX=0.5;entryY=1;entryDx=0;entryDy=0;exitX=1;exitY=0.5;exitDx=0;exitDy=0;" parent="1" source="YQ4cm8M8ITQVSyviY8Ld-8" target="qEJAQcxtMuj5-wfoeOrb-4" edge="1">
          <mxGeometry width="50" height="50" relative="1" as="geometry">
            <mxPoint x="1810" y="810" as="sourcePoint" />
            <mxPoint x="1860" y="760" as="targetPoint" />
          </mxGeometry>
        </mxCell>
        <mxCell id="l5iWc3z20wtJjfXAoTfO-5" value="Requête" style="swimlane;fontSize=20;" vertex="1" parent="1">
          <mxGeometry x="310" y="250" width="200" height="183.75" as="geometry" />
        </mxCell>
        <mxCell id="l5iWc3z20wtJjfXAoTfO-6" value="&lt;p class=&quot;MsoListParagraphCxSpFirst&quot; style=&quot;margin: 0cm 0cm 0cm 36pt ; line-height: 15.6933px ; font-size: 11pt ; font-family: &amp;#34;calibri&amp;#34; , sans-serif ; text-indent: -18pt&quot;&gt;&lt;/p&gt;&lt;font style=&quot;font-size: 18px&quot;&gt;&lt;b&gt;&lt;br&gt;&lt;/b&gt;&lt;/font&gt;" style="text;html=1;strokeColor=none;fillColor=none;align=left;verticalAlign=middle;whiteSpace=wrap;rounded=0;" vertex="1" parent="l5iWc3z20wtJjfXAoTfO-5">
          <mxGeometry y="35" width="190" height="130" as="geometry" />
        </mxCell>
      </root>
    </mxGraphModel>
  </diagram>
  <diagram name="Schéma intermédiaire" id="t6icahTjTsWDdCiCCuJ4">
    <mxGraphModel dx="1730" dy="912" grid="1" gridSize="10" guides="1" tooltips="1" connect="1" arrows="1" fold="1" page="1" pageScale="1" pageWidth="1169" pageHeight="827" math="0" shadow="0">
      <root>
        <mxCell id="m6CoEwEthxMjb2-2efVb-0" />
        <mxCell id="m6CoEwEthxMjb2-2efVb-1" parent="m6CoEwEthxMjb2-2efVb-0" />
        <mxCell id="m6CoEwEthxMjb2-2efVb-2" value="Locataire" style="swimlane;fontSize=20;" parent="m6CoEwEthxMjb2-2efVb-1" vertex="1">
          <mxGeometry x="440" y="468.12" width="200" height="183.75" as="geometry" />
        </mxCell>
        <mxCell id="m6CoEwEthxMjb2-2efVb-4" value="Propriétaire" style="swimlane;fontSize=20;" parent="m6CoEwEthxMjb2-2efVb-1" vertex="1">
          <mxGeometry x="1604" y="462.01" width="230" height="195" as="geometry" />
        </mxCell>
        <mxCell id="m6CoEwEthxMjb2-2efVb-6" value="Bien" style="swimlane;startSize=40;fontSize=20;" parent="m6CoEwEthxMjb2-2efVb-1" vertex="1">
          <mxGeometry x="1000" y="440" width="240.5" height="250" as="geometry" />
        </mxCell>
        <mxCell id="VVO5xakJMrQNFoZSKmeS-0" value="&lt;p class=&quot;MsoListParagraphCxSpFirst&quot; style=&quot;margin: 0cm 0cm 0cm 36pt ; line-height: 15.6933px ; font-size: 11pt ; font-family: &amp;#34;calibri&amp;#34; , sans-serif ; text-indent: -18pt&quot;&gt;&lt;/p&gt;&lt;p class=&quot;MsoListParagraphCxSpFirst&quot; style=&quot;margin: 0cm 0cm 0cm 36pt ; line-height: 15.6933px ; font-size: 11pt ; font-family: &amp;#34;calibri&amp;#34; , sans-serif ; text-indent: -18pt ; display: inline&quot;&gt;&lt;/p&gt;&lt;p class=&quot;MsoListParagraphCxSpFirst&quot; style=&quot;text-align: left ; margin: 0cm 0cm 0cm 36pt ; line-height: 15.6933px ; font-family: &amp;#34;calibri&amp;#34; , sans-serif ; text-indent: -18pt ; font-size: 18px&quot;&gt;&lt;span lang=&quot;FR&quot;&gt;&lt;font style=&quot;font-size: 18px&quot;&gt;ID du bien &lt;b&gt;string&lt;/b&gt;&amp;nbsp;&lt;/font&gt;&lt;/span&gt;&lt;/p&gt;&lt;p class=&quot;MsoListParagraphCxSpFirst&quot; style=&quot;text-align: left ; margin: 0cm 0cm 0cm 36pt ; line-height: 15.6933px ; font-family: &amp;#34;calibri&amp;#34; , sans-serif ; text-indent: -18pt ; font-size: 18px&quot;&gt;&lt;span style=&quot;text-indent: -18pt&quot;&gt;Statut &lt;b&gt;string&lt;/b&gt;&lt;/span&gt;&lt;/p&gt;&lt;p class=&quot;MsoListParagraphCxSpMiddle&quot; style=&quot;text-align: left ; margin: 0cm 0cm 0cm 36pt ; line-height: 15.6933px ; font-family: &amp;#34;calibri&amp;#34; , sans-serif ; text-indent: -18pt ; font-size: 18px&quot;&gt;&lt;span lang=&quot;FR&quot;&gt;&lt;font style=&quot;font-size: 18px&quot;&gt;Adresse&amp;nbsp;&lt;b&gt;&amp;nbsp;string&amp;nbsp;&lt;/b&gt;&lt;/font&gt;&lt;/span&gt;&lt;/p&gt;&lt;p class=&quot;MsoListParagraphCxSpMiddle&quot; style=&quot;text-align: left ; margin: 0cm 0cm 0cm 36pt ; line-height: 15.6933px ; font-family: &amp;#34;calibri&amp;#34; , sans-serif ; text-indent: -18pt ; font-size: 18px&quot;&gt;&lt;span lang=&quot;FR&quot;&gt;&lt;font style=&quot;font-size: 18px&quot;&gt;Loyer &lt;b&gt;int&lt;/b&gt;&lt;/font&gt;&lt;/span&gt;&lt;/p&gt;&lt;p class=&quot;MsoListParagraphCxSpMiddle&quot; style=&quot;text-align: left ; margin: 0cm 0cm 0cm 36pt ; line-height: 15.6933px ; font-family: &amp;#34;calibri&amp;#34; , sans-serif ; text-indent: -18pt ; font-size: 18px&quot;&gt;&lt;span lang=&quot;FR&quot;&gt;&lt;font style=&quot;font-size: 18px&quot;&gt;Charges &lt;b&gt;int&lt;/b&gt;&lt;/font&gt;&lt;/span&gt;&lt;/p&gt;&lt;p class=&quot;MsoListParagraphCxSpMiddle&quot; style=&quot;text-align: left ; margin: 0cm 0cm 0cm 36pt ; line-height: 15.6933px ; font-family: &amp;#34;calibri&amp;#34; , sans-serif ; text-indent: -18pt ; font-size: 18px&quot;&gt;&lt;span lang=&quot;FR&quot;&gt;&lt;font style=&quot;font-size: 18px&quot;&gt;Types de bails &lt;b&gt;string&lt;/b&gt;&lt;/font&gt;&lt;/span&gt;&lt;/p&gt;&lt;p class=&quot;MsoListParagraphCxSpMiddle&quot; style=&quot;text-align: left ; margin: 0cm 0cm 0cm 36pt ; line-height: 15.6933px ; font-family: &amp;#34;calibri&amp;#34; , sans-serif ; text-indent: -18pt ; font-size: 18px&quot;&gt;&lt;span lang=&quot;FR&quot;&gt;&lt;font style=&quot;font-size: 18px&quot;&gt;Garniture &lt;b&gt;string&lt;/b&gt;&lt;/font&gt;&lt;/span&gt;&lt;/p&gt;&lt;p class=&quot;MsoListParagraphCxSpMiddle&quot; style=&quot;text-align: left ; margin: 0cm 0cm 0cm 36pt ; line-height: 15.6933px ; font-family: &amp;#34;calibri&amp;#34; , sans-serif ; text-indent: -18pt ; font-size: 18px&quot;&gt;&lt;span lang=&quot;FR&quot;&gt;&lt;font style=&quot;font-size: 18px&quot;&gt;Description &lt;b&gt;string&lt;/b&gt;&lt;/font&gt;&lt;/span&gt;&lt;/p&gt;&lt;p class=&quot;MsoListParagraphCxSpMiddle&quot; style=&quot;text-align: left ; margin: 0cm 0cm 0cm 36pt ; line-height: 15.6933px ; font-family: &amp;#34;calibri&amp;#34; , sans-serif ; text-indent: -18pt ; font-size: 18px&quot;&gt;&lt;span lang=&quot;FR&quot;&gt;&lt;font style=&quot;font-size: 18px&quot;&gt;Caution &lt;b&gt;int&lt;/b&gt;&lt;/font&gt;&lt;/span&gt;&lt;/p&gt;&lt;p class=&quot;MsoListParagraphCxSpMiddle&quot; style=&quot;text-align: left ; margin: 0cm 0cm 0cm 36pt ; line-height: 15.6933px ; font-family: &amp;#34;calibri&amp;#34; , sans-serif ; text-indent: -18pt ; font-size: 18px&quot;&gt;&lt;span lang=&quot;FR&quot;&gt;&lt;font style=&quot;font-size: 18px&quot;&gt;Extérieur &lt;b&gt;string&lt;/b&gt;&lt;/font&gt;&lt;/span&gt;&lt;/p&gt;&lt;p class=&quot;MsoListParagraphCxSpLast&quot; style=&quot;text-align: left ; margin: 0cm 0cm 8pt 36pt ; line-height: 15.6933px ; font-family: &amp;#34;calibri&amp;#34; , sans-serif ; text-indent: -18pt ; font-size: 18px&quot;&gt;&lt;span lang=&quot;FR&quot;&gt;&lt;font style=&quot;font-size: 18px&quot;&gt;PEB &lt;b&gt;string&lt;/b&gt;&lt;/font&gt;&lt;/span&gt;&lt;/p&gt;&lt;p class=&quot;MsoListParagraphCxSpLast&quot; style=&quot;text-align: left ; margin: 0cm 0cm 8pt 36pt ; line-height: 15.6933px ; font-family: &amp;#34;calibri&amp;#34; , sans-serif ; text-indent: -18pt ; font-size: 18px&quot;&gt;&lt;span lang=&quot;FR&quot;&gt;&lt;font style=&quot;font-size: 18px&quot;&gt;&lt;b&gt;&lt;br&gt;&lt;/b&gt;&lt;/font&gt;&lt;/span&gt;&lt;/p&gt;" style="text;html=1;strokeColor=none;fillColor=none;align=center;verticalAlign=middle;whiteSpace=wrap;rounded=0;spacingTop=0;" parent="m6CoEwEthxMjb2-2efVb-6" vertex="1">
          <mxGeometry x="18" y="50" width="204.5" height="200" as="geometry" />
        </mxCell>
        <mxCell id="m6CoEwEthxMjb2-2efVb-8" value="Maison" style="swimlane;fontSize=20;startSize=39;" parent="m6CoEwEthxMjb2-2efVb-1" vertex="1">
          <mxGeometry x="736.5" y="39" width="204.5" height="160" as="geometry" />
        </mxCell>
        <mxCell id="m6CoEwEthxMjb2-2efVb-10" value="Appart" style="swimlane;rounded=0;startSize=40;fontSize=20;" parent="m6CoEwEthxMjb2-2efVb-1" vertex="1">
          <mxGeometry x="1020.5" y="40" width="200" height="160" as="geometry" />
        </mxCell>
        <mxCell id="m6CoEwEthxMjb2-2efVb-12" value="Studio" style="swimlane;startSize=40;fontSize=20;" parent="m6CoEwEthxMjb2-2efVb-1" vertex="1">
          <mxGeometry x="1300.5" y="40" width="159.5" height="160" as="geometry" />
        </mxCell>
        <mxCell id="m6CoEwEthxMjb2-2efVb-20" value="" style="endArrow=none;html=1;fontSize=20;strokeColor=#000000;fillColor=#000000;exitX=1;exitY=0.5;exitDx=0;exitDy=0;startArrow=none;" parent="m6CoEwEthxMjb2-2efVb-1" source="m6CoEwEthxMjb2-2efVb-34" edge="1">
          <mxGeometry width="50" height="50" relative="1" as="geometry">
            <mxPoint x="930" y="510" as="sourcePoint" />
            <mxPoint x="1000" y="560" as="targetPoint" />
          </mxGeometry>
        </mxCell>
        <mxCell id="m6CoEwEthxMjb2-2efVb-21" value="" style="rounded=1;whiteSpace=wrap;html=1;fontSize=20;" parent="m6CoEwEthxMjb2-2efVb-1" vertex="1">
          <mxGeometry x="760" y="529.99" width="120" height="60" as="geometry" />
        </mxCell>
        <mxCell id="m6CoEwEthxMjb2-2efVb-22" value="" style="endArrow=none;html=1;fontSize=20;strokeColor=#000000;fillColor=#000000;exitX=1;exitY=0.5;exitDx=0;exitDy=0;entryX=0;entryY=0.5;entryDx=0;entryDy=0;startArrow=none;" parent="m6CoEwEthxMjb2-2efVb-1" source="m6CoEwEthxMjb2-2efVb-32" target="m6CoEwEthxMjb2-2efVb-21" edge="1">
          <mxGeometry width="50" height="50" relative="1" as="geometry">
            <mxPoint x="690" y="559.9950000000001" as="sourcePoint" />
            <mxPoint x="948.25" y="559.99" as="targetPoint" />
          </mxGeometry>
        </mxCell>
        <mxCell id="m6CoEwEthxMjb2-2efVb-23" value="" style="rounded=1;whiteSpace=wrap;html=1;fontSize=20;" parent="m6CoEwEthxMjb2-2efVb-1" vertex="1">
          <mxGeometry x="1360" y="529.5" width="120" height="60" as="geometry" />
        </mxCell>
        <mxCell id="m6CoEwEthxMjb2-2efVb-24" value="" style="endArrow=none;html=1;fontSize=20;strokeColor=#000000;fillColor=#000000;entryX=0;entryY=0.5;entryDx=0;entryDy=0;exitX=1;exitY=0.5;exitDx=0;exitDy=0;startArrow=none;" parent="m6CoEwEthxMjb2-2efVb-1" source="m6CoEwEthxMjb2-2efVb-27" target="m6CoEwEthxMjb2-2efVb-23" edge="1">
          <mxGeometry width="50" height="50" relative="1" as="geometry">
            <mxPoint x="1252.75" y="540" as="sourcePoint" />
            <mxPoint x="1480" y="540" as="targetPoint" />
          </mxGeometry>
        </mxCell>
        <mxCell id="m6CoEwEthxMjb2-2efVb-25" value="Louer" style="text;html=1;strokeColor=none;fillColor=none;align=center;verticalAlign=middle;whiteSpace=wrap;rounded=0;fontSize=20;" parent="m6CoEwEthxMjb2-2efVb-1" vertex="1">
          <mxGeometry x="800" y="549.99" width="40" height="20" as="geometry" />
        </mxCell>
        <mxCell id="m6CoEwEthxMjb2-2efVb-26" value="Posséder" style="text;html=1;strokeColor=none;fillColor=none;align=center;verticalAlign=middle;whiteSpace=wrap;rounded=0;fontSize=20;" parent="m6CoEwEthxMjb2-2efVb-1" vertex="1">
          <mxGeometry x="1400" y="549.5" width="40" height="20" as="geometry" />
        </mxCell>
        <mxCell id="m6CoEwEthxMjb2-2efVb-27" value="1,1" style="text;html=1;strokeColor=none;fillColor=none;align=center;verticalAlign=middle;whiteSpace=wrap;rounded=0;fontSize=20;" parent="m6CoEwEthxMjb2-2efVb-1" vertex="1">
          <mxGeometry x="1280" y="549.51" width="40" height="20" as="geometry" />
        </mxCell>
        <mxCell id="m6CoEwEthxMjb2-2efVb-28" value="" style="endArrow=none;html=1;fontSize=20;strokeColor=#000000;fillColor=#000000;entryX=0;entryY=0.5;entryDx=0;entryDy=0;" parent="m6CoEwEthxMjb2-2efVb-1" target="m6CoEwEthxMjb2-2efVb-27" edge="1">
          <mxGeometry width="50" height="50" relative="1" as="geometry">
            <mxPoint x="1240" y="560" as="sourcePoint" />
            <mxPoint x="1370" y="559.51" as="targetPoint" />
          </mxGeometry>
        </mxCell>
        <mxCell id="m6CoEwEthxMjb2-2efVb-29" value="" style="endArrow=none;html=1;fontSize=20;strokeColor=#000000;fillColor=#000000;entryX=0;entryY=0.5;entryDx=0;entryDy=0;exitX=1;exitY=0.5;exitDx=0;exitDy=0;startArrow=none;" parent="m6CoEwEthxMjb2-2efVb-1" source="m6CoEwEthxMjb2-2efVb-30" target="m6CoEwEthxMjb2-2efVb-4" edge="1">
          <mxGeometry width="50" height="50" relative="1" as="geometry">
            <mxPoint x="1240" y="410" as="sourcePoint" />
            <mxPoint x="1290" y="360" as="targetPoint" />
          </mxGeometry>
        </mxCell>
        <mxCell id="m6CoEwEthxMjb2-2efVb-30" value="1,N" style="text;html=1;strokeColor=none;fillColor=none;align=center;verticalAlign=middle;whiteSpace=wrap;rounded=0;fontSize=20;" parent="m6CoEwEthxMjb2-2efVb-1" vertex="1">
          <mxGeometry x="1520" y="550" width="40" height="20" as="geometry" />
        </mxCell>
        <mxCell id="m6CoEwEthxMjb2-2efVb-31" value="" style="endArrow=none;html=1;fontSize=20;strokeColor=#000000;fillColor=#000000;entryX=0;entryY=0.5;entryDx=0;entryDy=0;exitX=1;exitY=0.5;exitDx=0;exitDy=0;" parent="m6CoEwEthxMjb2-2efVb-1" source="m6CoEwEthxMjb2-2efVb-23" target="m6CoEwEthxMjb2-2efVb-30" edge="1">
          <mxGeometry width="50" height="50" relative="1" as="geometry">
            <mxPoint x="1480" y="559.5" as="sourcePoint" />
            <mxPoint x="1600" y="559.51" as="targetPoint" />
          </mxGeometry>
        </mxCell>
        <mxCell id="m6CoEwEthxMjb2-2efVb-32" value="1,1" style="text;html=1;strokeColor=none;fillColor=none;align=center;verticalAlign=middle;whiteSpace=wrap;rounded=0;fontSize=20;" parent="m6CoEwEthxMjb2-2efVb-1" vertex="1">
          <mxGeometry x="681" y="550" width="40" height="20" as="geometry" />
        </mxCell>
        <mxCell id="m6CoEwEthxMjb2-2efVb-33" value="" style="endArrow=none;html=1;fontSize=20;strokeColor=#000000;fillColor=#000000;exitX=1;exitY=0.5;exitDx=0;exitDy=0;entryX=0;entryY=0.5;entryDx=0;entryDy=0;" parent="m6CoEwEthxMjb2-2efVb-1" source="m6CoEwEthxMjb2-2efVb-2" target="m6CoEwEthxMjb2-2efVb-32" edge="1">
          <mxGeometry width="50" height="50" relative="1" as="geometry">
            <mxPoint x="639.9999999999998" y="559.9949999999999" as="sourcePoint" />
            <mxPoint x="760" y="559.99" as="targetPoint" />
          </mxGeometry>
        </mxCell>
        <mxCell id="m6CoEwEthxMjb2-2efVb-34" value="0,N" style="text;html=1;strokeColor=none;fillColor=none;align=center;verticalAlign=middle;whiteSpace=wrap;rounded=0;fontSize=20;" parent="m6CoEwEthxMjb2-2efVb-1" vertex="1">
          <mxGeometry x="920" y="550" width="40" height="20" as="geometry" />
        </mxCell>
        <mxCell id="m6CoEwEthxMjb2-2efVb-35" value="" style="endArrow=none;html=1;fontSize=20;strokeColor=#000000;fillColor=#000000;exitX=1;exitY=0.5;exitDx=0;exitDy=0;entryX=0;entryY=0.5;entryDx=0;entryDy=0;startArrow=none;" parent="m6CoEwEthxMjb2-2efVb-1" source="m6CoEwEthxMjb2-2efVb-21" target="m6CoEwEthxMjb2-2efVb-34" edge="1">
          <mxGeometry width="50" height="50" relative="1" as="geometry">
            <mxPoint x="880" y="559.99" as="sourcePoint" />
            <mxPoint x="1000" y="559.5050000000001" as="targetPoint" />
          </mxGeometry>
        </mxCell>
        <mxCell id="0yRbJHDLpJGl7vS1Sdpt-0" value="" style="endArrow=none;html=1;fontSize=20;strokeColor=#000000;fillColor=#000000;entryX=0.5;entryY=0;entryDx=0;entryDy=0;exitX=0.5;exitY=1;exitDx=0;exitDy=0;endFill=0;" parent="m6CoEwEthxMjb2-2efVb-1" source="m6CoEwEthxMjb2-2efVb-8" target="m6CoEwEthxMjb2-2efVb-6" edge="1">
          <mxGeometry width="50" height="50" relative="1" as="geometry">
            <mxPoint x="650" y="780" as="sourcePoint" />
            <mxPoint x="700" y="730" as="targetPoint" />
            <Array as="points">
              <mxPoint x="840" y="360" />
            </Array>
          </mxGeometry>
        </mxCell>
        <mxCell id="0yRbJHDLpJGl7vS1Sdpt-7" value="1,1" style="edgeLabel;html=1;align=center;verticalAlign=middle;resizable=0;points=[];fontSize=20;" parent="0yRbJHDLpJGl7vS1Sdpt-0" vertex="1" connectable="0">
          <mxGeometry x="-0.7355" relative="1" as="geometry">
            <mxPoint as="offset" />
          </mxGeometry>
        </mxCell>
        <mxCell id="0yRbJHDLpJGl7vS1Sdpt-10" value="0,1" style="edgeLabel;html=1;align=center;verticalAlign=middle;resizable=0;points=[];fontSize=20;" parent="0yRbJHDLpJGl7vS1Sdpt-0" vertex="1" connectable="0">
          <mxGeometry x="0.449" relative="1" as="geometry">
            <mxPoint as="offset" />
          </mxGeometry>
        </mxCell>
        <mxCell id="0yRbJHDLpJGl7vS1Sdpt-2" value="" style="endArrow=none;html=1;fontSize=20;strokeColor=#000000;fillColor=#000000;entryX=0.5;entryY=1;entryDx=0;entryDy=0;exitX=0.5;exitY=0;exitDx=0;exitDy=0;" parent="m6CoEwEthxMjb2-2efVb-1" source="m6CoEwEthxMjb2-2efVb-6" target="m6CoEwEthxMjb2-2efVb-10" edge="1">
          <mxGeometry width="50" height="50" relative="1" as="geometry">
            <mxPoint x="980" y="410" as="sourcePoint" />
            <mxPoint x="1030" y="360" as="targetPoint" />
          </mxGeometry>
        </mxCell>
        <mxCell id="0yRbJHDLpJGl7vS1Sdpt-8" value="1,1" style="edgeLabel;html=1;align=center;verticalAlign=middle;resizable=0;points=[];fontSize=20;" parent="0yRbJHDLpJGl7vS1Sdpt-2" vertex="1" connectable="0">
          <mxGeometry x="0.5155" y="1" relative="1" as="geometry">
            <mxPoint as="offset" />
          </mxGeometry>
        </mxCell>
        <mxCell id="ujBrlKV-oQzdniwOeO34-0" value="0,1" style="edgeLabel;html=1;align=center;verticalAlign=middle;resizable=0;points=[];fontSize=20;" parent="0yRbJHDLpJGl7vS1Sdpt-2" vertex="1" connectable="0">
          <mxGeometry x="-0.7333" y="-3" relative="1" as="geometry">
            <mxPoint y="-2" as="offset" />
          </mxGeometry>
        </mxCell>
        <mxCell id="0yRbJHDLpJGl7vS1Sdpt-3" value="" style="endArrow=none;html=1;fontSize=20;strokeColor=#000000;fillColor=#000000;entryX=0.5;entryY=1;entryDx=0;entryDy=0;exitX=0.5;exitY=0;exitDx=0;exitDy=0;" parent="m6CoEwEthxMjb2-2efVb-1" source="m6CoEwEthxMjb2-2efVb-6" target="m6CoEwEthxMjb2-2efVb-12" edge="1">
          <mxGeometry width="50" height="50" relative="1" as="geometry">
            <mxPoint x="1150" y="400" as="sourcePoint" />
            <mxPoint x="1140" y="310" as="targetPoint" />
            <Array as="points">
              <mxPoint x="1380" y="360" />
            </Array>
          </mxGeometry>
        </mxCell>
        <mxCell id="0yRbJHDLpJGl7vS1Sdpt-9" value="1,1" style="edgeLabel;html=1;align=center;verticalAlign=middle;resizable=0;points=[];fontSize=20;" parent="0yRbJHDLpJGl7vS1Sdpt-3" vertex="1" connectable="0">
          <mxGeometry x="0.7403" y="-2" relative="1" as="geometry">
            <mxPoint as="offset" />
          </mxGeometry>
        </mxCell>
        <mxCell id="0yRbJHDLpJGl7vS1Sdpt-11" value="0,1" style="edgeLabel;html=1;align=center;verticalAlign=middle;resizable=0;points=[];fontSize=20;" parent="0yRbJHDLpJGl7vS1Sdpt-3" vertex="1" connectable="0">
          <mxGeometry x="-0.4033" y="-2" relative="1" as="geometry">
            <mxPoint as="offset" />
          </mxGeometry>
        </mxCell>
        <mxCell id="0yRbJHDLpJGl7vS1Sdpt-4" value="Correspond" style="rounded=1;whiteSpace=wrap;html=1;fontSize=20;" parent="m6CoEwEthxMjb2-2efVb-1" vertex="1">
          <mxGeometry x="778.75" y="320" width="120" height="60" as="geometry" />
        </mxCell>
        <mxCell id="0yRbJHDLpJGl7vS1Sdpt-5" value="Correspond" style="rounded=1;whiteSpace=wrap;html=1;fontSize=20;" parent="m6CoEwEthxMjb2-2efVb-1" vertex="1">
          <mxGeometry x="1060.5" y="320" width="120" height="60" as="geometry" />
        </mxCell>
        <mxCell id="0yRbJHDLpJGl7vS1Sdpt-6" value="Correspond" style="rounded=1;whiteSpace=wrap;html=1;fontSize=20;" parent="m6CoEwEthxMjb2-2efVb-1" vertex="1">
          <mxGeometry x="1320.25" y="320" width="120" height="60" as="geometry" />
        </mxCell>
        <mxCell id="BfthKuNIln_6FLHozdKC-0" value="&lt;p class=&quot;MsoListParagraphCxSpFirst&quot; style=&quot;margin: 0cm 0cm 0cm 36pt ; line-height: 15.6933px ; font-size: 20px ; font-family: &amp;#34;calibri&amp;#34; , sans-serif ; text-indent: -18pt&quot;&gt;&lt;/p&gt;&lt;p class=&quot;MsoListParagraphCxSpFirst&quot; style=&quot;margin: 0cm 0cm 0cm 36pt ; line-height: 15.6933px ; text-indent: -18pt ; display: inline ; font-size: 20px&quot;&gt;&lt;/p&gt;&lt;div style=&quot;text-indent: -24px ; font-size: 18px&quot;&gt;&lt;font face=&quot;calibri, sans-serif&quot; style=&quot;font-size: 18px&quot;&gt;Nbr chambres &lt;b&gt;int&lt;/b&gt;&lt;/font&gt;&lt;/div&gt;&lt;div style=&quot;text-indent: -24px ; font-size: 18px&quot;&gt;&lt;font face=&quot;calibri, sans-serif&quot; style=&quot;font-size: 18px&quot;&gt;Nbr étages &lt;b&gt;int&lt;/b&gt;&amp;nbsp;&amp;nbsp;&lt;/font&gt;&lt;/div&gt;&lt;div style=&quot;text-indent: -24px ; font-size: 18px&quot;&gt;&lt;span style=&quot;font-family: &amp;#34;calibri&amp;#34; , sans-serif&quot;&gt;Garage &lt;b&gt;string&lt;/b&gt;&lt;/span&gt;&lt;/div&gt;&lt;p style=&quot;font-size: 20px&quot;&gt;&lt;/p&gt;" style="text;html=1;strokeColor=none;fillColor=none;align=left;verticalAlign=middle;whiteSpace=wrap;rounded=0;fontSize=20;" parent="m6CoEwEthxMjb2-2efVb-1" vertex="1">
          <mxGeometry x="790.5" y="88.74000000000001" width="124" height="80" as="geometry" />
        </mxCell>
        <mxCell id="s-B1YruXbIKeVLFy1bYW-0" value="&lt;p class=&quot;MsoListParagraphCxSpFirst&quot; style=&quot;margin: 0cm 0cm 0cm 36pt ; line-height: 15.6933px ; font-size: 11pt ; font-family: &amp;#34;calibri&amp;#34; , sans-serif ; text-indent: -18pt&quot;&gt;&lt;/p&gt;&lt;p class=&quot;MsoListParagraphCxSpFirst&quot; style=&quot;margin: 0cm 0cm 0cm 36pt ; line-height: 15.6933px ; text-indent: -18pt ; display: inline&quot;&gt;&lt;/p&gt;&lt;div style=&quot;text-indent: -24px ; font-size: 20px&quot;&gt;&lt;font face=&quot;calibri, sans-serif&quot; style=&quot;font-size: 20px&quot;&gt;Nbr chambres &lt;b&gt;int&lt;/b&gt;&lt;/font&gt;&lt;/div&gt;&lt;div style=&quot;text-indent: -24px ; font-size: 20px&quot;&gt;&lt;font face=&quot;calibri, sans-serif&quot; style=&quot;font-size: 20px&quot;&gt;Nº étage &lt;b&gt;int&lt;/b&gt;&lt;/font&gt;&lt;/div&gt;&lt;div style=&quot;text-indent: -24px ; font-size: 20px&quot;&gt;&lt;font face=&quot;calibri, sans-serif&quot; style=&quot;font-size: 20px&quot;&gt;Garage &lt;b&gt;string&lt;/b&gt;&lt;/font&gt;&lt;/div&gt;&lt;p&gt;&lt;/p&gt;" style="text;html=1;strokeColor=none;fillColor=none;align=left;verticalAlign=middle;whiteSpace=wrap;rounded=0;" parent="m6CoEwEthxMjb2-2efVb-1" vertex="1">
          <mxGeometry x="1060.5" y="96.87" width="154.75" height="80" as="geometry" />
        </mxCell>
        <mxCell id="Ck0pq-mbhyAnBq-SEg_7-0" value="&lt;p class=&quot;MsoListParagraphCxSpFirst&quot; style=&quot;margin: 0cm 0cm 0cm 36pt ; line-height: 15.6933px ; font-size: 11pt ; font-family: &amp;#34;calibri&amp;#34; , sans-serif ; text-indent: -18pt&quot;&gt;&lt;/p&gt;&lt;p class=&quot;MsoListParagraphCxSpFirst&quot; style=&quot;margin: 0cm 0cm 0cm 36pt ; line-height: 15.6933px ; text-indent: -18pt ; display: inline&quot;&gt;&lt;/p&gt;&lt;div style=&quot;text-indent: -24px ; font-size: 20px&quot;&gt;&lt;span style=&quot;font-family: &amp;#34;calibri&amp;#34; , sans-serif&quot;&gt;Nº étage &lt;b&gt;int&lt;/b&gt;&lt;/span&gt;&lt;br&gt;&lt;/div&gt;&lt;p&gt;&lt;/p&gt;" style="text;html=1;strokeColor=none;fillColor=none;align=left;verticalAlign=middle;whiteSpace=wrap;rounded=0;" parent="m6CoEwEthxMjb2-2efVb-1" vertex="1">
          <mxGeometry x="1340.5" y="96.87" width="89.5" height="63.74" as="geometry" />
        </mxCell>
        <mxCell id="dYWRXdNp8LQB9vNsUcaX-0" value="&lt;p class=&quot;MsoListParagraphCxSpFirst&quot; style=&quot;margin: 0cm 0cm 0cm 36pt ; line-height: 15.6933px ; font-size: 11pt ; font-family: &amp;#34;calibri&amp;#34; , sans-serif ; text-indent: -18pt&quot;&gt;&lt;/p&gt;&lt;font style=&quot;font-size: 18px&quot;&gt;ID de Locataire &lt;b&gt;string&lt;/b&gt;&lt;br&gt;&lt;span lang=&quot;FR&quot; style=&quot;text-indent: -18pt&quot;&gt;&lt;font style=&quot;font-size: 18px&quot;&gt;Nº de compte &lt;b&gt;int&lt;/b&gt;&lt;/font&gt;&lt;/span&gt;&lt;br&gt;Nom &lt;b&gt;string&lt;/b&gt;&lt;br&gt;Numéro de tel &lt;b&gt;int&lt;/b&gt;&lt;br&gt;ID du bien &lt;b&gt;string&lt;/b&gt;&lt;br&gt;Loyer &lt;b&gt;int&lt;br&gt;&lt;/b&gt;&lt;span style=&quot;font-family: &amp;#34;calibri&amp;#34; , sans-serif ; text-indent: -24px&quot;&gt;Adresse email&amp;nbsp;&lt;/span&gt;&lt;b style=&quot;font-family: &amp;#34;calibri&amp;#34; , sans-serif ; text-indent: -24px&quot;&gt;string&lt;/b&gt;&lt;b&gt;&lt;br&gt;&lt;/b&gt;&lt;/font&gt;" style="text;html=1;strokeColor=none;fillColor=none;align=left;verticalAlign=middle;whiteSpace=wrap;rounded=0;" parent="m6CoEwEthxMjb2-2efVb-1" vertex="1">
          <mxGeometry x="445" y="505" width="190" height="130" as="geometry" />
        </mxCell>
        <mxCell id="71Aqu6GfJiC2ybsAKtd9-0" value="&lt;p class=&quot;MsoListParagraphCxSpFirst&quot; style=&quot;margin: 0cm 0cm 0cm 36pt ; line-height: 15.6933px ; font-size: 11pt ; font-family: &amp;#34;calibri&amp;#34; , sans-serif ; text-indent: -18pt&quot;&gt;&lt;/p&gt;&lt;p class=&quot;MsoListParagraphCxSpFirst&quot; style=&quot;margin: 0cm 0cm 0cm 36pt ; line-height: 15.6933px ; font-size: 11pt ; font-family: &amp;#34;calibri&amp;#34; , sans-serif ; text-indent: -18pt ; display: inline&quot;&gt;&lt;/p&gt;&lt;div style=&quot;font-size: 18px&quot;&gt;&lt;span style=&quot;text-indent: -18pt&quot;&gt;&lt;font style=&quot;font-size: 18px&quot;&gt;ID de propriétaire &lt;b&gt;string&lt;/b&gt;&lt;/font&gt;&lt;/span&gt;&lt;/div&gt;&lt;div style=&quot;font-size: 18px&quot;&gt;Nº de compte &lt;b&gt;int&lt;/b&gt;&lt;/div&gt;&lt;div style=&quot;font-size: 18px&quot;&gt;&lt;span style=&quot;font-family: &amp;#34;calibri&amp;#34; , sans-serif ; text-indent: -18pt&quot;&gt;Nom &lt;b&gt;string&amp;nbsp;&lt;/b&gt;&lt;/span&gt;&lt;/div&gt;&lt;div style=&quot;font-size: 18px&quot;&gt;&lt;span style=&quot;font-family: &amp;#34;calibri&amp;#34; , sans-serif ; text-indent: -18pt&quot;&gt;Liste de biens &lt;b&gt;string&lt;/b&gt;&lt;/span&gt;&lt;/div&gt;&lt;div style=&quot;font-size: 18px&quot;&gt;&lt;span style=&quot;font-family: &amp;#34;calibri&amp;#34; , sans-serif ; text-indent: -18pt&quot;&gt;(ID du bien, adresse)&lt;/span&gt;&lt;/div&gt;&lt;div style=&quot;font-size: 18px&quot;&gt;&lt;span style=&quot;font-family: &amp;#34;calibri&amp;#34; , sans-serif ; text-indent: -18pt&quot;&gt;Numéro de Tel &lt;b&gt;int&lt;/b&gt;&lt;/span&gt;&lt;/div&gt;&lt;div style=&quot;font-size: 18px&quot;&gt;&lt;span style=&quot;font-family: &amp;#34;calibri&amp;#34; , sans-serif ; text-indent: -24px&quot;&gt;Adresse email&amp;nbsp;&lt;/span&gt;&lt;b style=&quot;font-family: &amp;#34;calibri&amp;#34; , sans-serif ; text-indent: -24px&quot;&gt;string&lt;/b&gt;&lt;span style=&quot;font-family: &amp;#34;calibri&amp;#34; , sans-serif ; text-indent: -18pt&quot;&gt;&lt;b&gt;&lt;br&gt;&lt;/b&gt;&lt;/span&gt;&lt;/div&gt;" style="text;html=1;strokeColor=none;fillColor=none;align=left;verticalAlign=middle;whiteSpace=wrap;rounded=0;" parent="m6CoEwEthxMjb2-2efVb-1" vertex="1">
          <mxGeometry x="1614" y="505" width="220" height="130" as="geometry" />
        </mxCell>
        <mxCell id="1WVR2YU9xiei8B15XmFb-1" value="&lt;meta charset=&quot;utf-8&quot;&gt;&lt;span style=&quot;color: rgb(0, 0, 0); font-family: helvetica; font-size: 20px; font-style: normal; font-weight: 400; letter-spacing: normal; text-align: center; text-indent: 0px; text-transform: none; word-spacing: 0px; background-color: rgb(255, 255, 255); display: inline; float: none;&quot;&gt;1,N&lt;/span&gt;" style="endArrow=none;html=1;fontSize=20;strokeColor=#000000;fillColor=#000000;exitX=1;exitY=0.5;exitDx=0;exitDy=0;startArrow=none;entryX=0;entryY=0.5;entryDx=0;entryDy=0;" parent="m6CoEwEthxMjb2-2efVb-1" source="1WVR2YU9xiei8B15XmFb-0" target="Z5911pN_meZW648TEDM9-0" edge="1">
          <mxGeometry width="50" height="50" relative="1" as="geometry">
            <mxPoint x="539.9999999999995" y="651.8699999999999" as="sourcePoint" />
            <mxPoint x="1030" y="850" as="targetPoint" />
            <Array as="points" />
          </mxGeometry>
        </mxCell>
        <mxCell id="1WVR2YU9xiei8B15XmFb-0" value="Signer" style="rounded=1;whiteSpace=wrap;html=1;fontSize=20;" parent="m6CoEwEthxMjb2-2efVb-1" vertex="1">
          <mxGeometry x="480" y="820" width="120" height="60" as="geometry" />
        </mxCell>
        <mxCell id="1WVR2YU9xiei8B15XmFb-5" value="1,N" style="endArrow=none;html=1;fontSize=20;strokeColor=#000000;fillColor=#000000;exitX=0.5;exitY=1;exitDx=0;exitDy=0;" parent="m6CoEwEthxMjb2-2efVb-1" source="m6CoEwEthxMjb2-2efVb-2" target="1WVR2YU9xiei8B15XmFb-0" edge="1">
          <mxGeometry width="50" height="50" relative="1" as="geometry">
            <mxPoint x="539.9999999999995" y="651.8699999999999" as="sourcePoint" />
            <mxPoint x="709.9999999999995" y="750" as="targetPoint" />
            <Array as="points" />
          </mxGeometry>
        </mxCell>
        <mxCell id="0sFtcD0vcUA6p-9vSSO1-1" value="Signer" style="rounded=1;whiteSpace=wrap;html=1;fontSize=20;" parent="m6CoEwEthxMjb2-2efVb-1" vertex="1">
          <mxGeometry x="1598" y="820" width="120" height="60" as="geometry" />
        </mxCell>
        <mxCell id="5yHn3e88GEZXv2dVeeNV-0" value="" style="endArrow=none;html=1;rounded=0;startArrow=none;entryX=0;entryY=0.5;entryDx=0;entryDy=0;exitX=1;exitY=0.5;exitDx=0;exitDy=0;" parent="m6CoEwEthxMjb2-2efVb-1" source="q_ygRH5LcUaPm80mKIAw-2" target="0sFtcD0vcUA6p-9vSSO1-1" edge="1">
          <mxGeometry width="50" height="50" relative="1" as="geometry">
            <mxPoint x="1350" y="812" as="sourcePoint" />
            <mxPoint x="1430" y="770" as="targetPoint" />
          </mxGeometry>
        </mxCell>
        <mxCell id="q_ygRH5LcUaPm80mKIAw-2" value="&lt;meta charset=&quot;utf-8&quot;&gt;&lt;span style=&quot;color: rgb(0, 0, 0); font-family: helvetica; font-size: 20px; font-style: normal; font-weight: 400; letter-spacing: normal; text-align: center; text-indent: 0px; text-transform: none; word-spacing: 0px; background-color: rgb(255, 255, 255); display: inline; float: none;&quot;&gt;1,N&lt;/span&gt;" style="text;whiteSpace=wrap;html=1;" parent="m6CoEwEthxMjb2-2efVb-1" vertex="1">
          <mxGeometry x="1421.5" y="835" width="38.5" height="30" as="geometry" />
        </mxCell>
        <mxCell id="q_ygRH5LcUaPm80mKIAw-3" value="" style="endArrow=none;html=1;rounded=0;startArrow=none;entryX=0.481;entryY=0.5;entryDx=0;entryDy=0;entryPerimeter=0;" parent="m6CoEwEthxMjb2-2efVb-1" target="q_ygRH5LcUaPm80mKIAw-2" edge="1">
          <mxGeometry width="50" height="50" relative="1" as="geometry">
            <mxPoint x="1220" y="850" as="sourcePoint" />
            <mxPoint x="1320" y="820" as="targetPoint" />
          </mxGeometry>
        </mxCell>
        <mxCell id="q_ygRH5LcUaPm80mKIAw-4" value="" style="endArrow=none;html=1;rounded=0;entryX=0.5;entryY=1;entryDx=0;entryDy=0;startArrow=none;" parent="m6CoEwEthxMjb2-2efVb-1" target="m6CoEwEthxMjb2-2efVb-4" edge="1">
          <mxGeometry width="50" height="50" relative="1" as="geometry">
            <mxPoint x="1720" y="735" as="sourcePoint" />
            <mxPoint x="1300" y="490" as="targetPoint" />
          </mxGeometry>
        </mxCell>
        <mxCell id="Z5911pN_meZW648TEDM9-0" value="Contrat" style="swimlane;fontSize=18;align=center;" parent="m6CoEwEthxMjb2-2efVb-1" vertex="1">
          <mxGeometry x="1020.5" y="750" width="200" height="200" as="geometry" />
        </mxCell>
        <mxCell id="Z5911pN_meZW648TEDM9-1" value="&lt;font style=&quot;font-size: 18px&quot;&gt;Loyer&amp;nbsp; &lt;b&gt;int&lt;/b&gt;&lt;br&gt;Début bail &lt;b&gt;int&amp;nbsp;&lt;/b&gt;&lt;br&gt;Fin bail &lt;b&gt;int&amp;nbsp;&lt;br&gt;&lt;/b&gt;Nbr locataire &lt;b&gt;int&lt;/b&gt;&lt;br&gt;Type contrat &lt;b&gt;string&lt;/b&gt;&amp;nbsp;&lt;br&gt;&lt;br&gt;&lt;/font&gt;" style="text;html=1;align=left;verticalAlign=middle;resizable=0;points=[];autosize=1;strokeColor=none;fillColor=none;" parent="Z5911pN_meZW648TEDM9-0" vertex="1">
          <mxGeometry x="15.25" y="70" width="170" height="100" as="geometry" />
        </mxCell>
        <mxCell id="Z5911pN_meZW648TEDM9-4" value="" style="endArrow=none;html=1;rounded=0;" parent="m6CoEwEthxMjb2-2efVb-1" target="Z5911pN_meZW648TEDM9-0" edge="1">
          <mxGeometry width="50" height="50" relative="1" as="geometry">
            <mxPoint x="1220" y="870" as="sourcePoint" />
            <mxPoint x="1319.9999999999995" y="820" as="targetPoint" />
          </mxGeometry>
        </mxCell>
        <mxCell id="SEK-IAamDxdj2Ue4XOdM-1" value="&lt;span style=&quot;color: rgb(0 , 0 , 0) ; font-family: &amp;#34;helvetica&amp;#34; ; font-size: 20px ; font-style: normal ; font-weight: 400 ; letter-spacing: normal ; text-align: center ; text-indent: 0px ; text-transform: none ; word-spacing: 0px ; background-color: rgb(255 , 255 , 255) ; display: inline ; float: none&quot;&gt;0,N&lt;/span&gt;" style="text;whiteSpace=wrap;html=1;" parent="m6CoEwEthxMjb2-2efVb-1" vertex="1">
          <mxGeometry x="1699" y="720" width="40" height="30" as="geometry" />
        </mxCell>
        <mxCell id="Z5911pN_meZW648TEDM9-6" value="" style="endArrow=none;html=1;rounded=0;entryX=0.5;entryY=1;entryDx=0;entryDy=0;exitX=1;exitY=0.5;exitDx=0;exitDy=0;" parent="m6CoEwEthxMjb2-2efVb-1" source="0sFtcD0vcUA6p-9vSSO1-1" target="SEK-IAamDxdj2Ue4XOdM-1" edge="1">
          <mxGeometry width="50" height="50" relative="1" as="geometry">
            <mxPoint x="1718" y="850" as="sourcePoint" />
            <mxPoint x="1719" y="657.01" as="targetPoint" />
          </mxGeometry>
        </mxCell>
      </root>
    </mxGraphModel>
  </diagram>
  <diagram id="qhDhASbXid03h3KdfV4-" name="Schéma relationnel">
    <mxGraphModel dx="2966" dy="1563" grid="1" gridSize="10" guides="1" tooltips="1" connect="1" arrows="1" fold="1" page="1" pageScale="1" pageWidth="1169" pageHeight="827" math="0" shadow="0">
      <root>
        <mxCell id="MGNAUimHkOiYEwmKtxIL-0" />
        <mxCell id="MGNAUimHkOiYEwmKtxIL-1" parent="MGNAUimHkOiYEwmKtxIL-0" />
        <mxCell id="QNYM71YGBWdss-ZPMZar-0" value="Locataire" style="swimlane;fontSize=20;" parent="MGNAUimHkOiYEwmKtxIL-1" vertex="1">
          <mxGeometry x="1690" y="570" width="210" height="201.88" as="geometry" />
        </mxCell>
        <mxCell id="QNYM71YGBWdss-ZPMZar-42" value="&lt;p class=&quot;MsoListParagraphCxSpFirst&quot; style=&quot;margin: 0cm 0cm 0cm 36pt ; line-height: 15.6933px ; font-size: 11pt ; font-family: &amp;#34;calibri&amp;#34; , sans-serif ; text-indent: -18pt&quot;&gt;&lt;/p&gt;&lt;font style=&quot;font-size: 18px&quot;&gt;ID de Locataire &lt;b&gt;string&lt;/b&gt;&lt;br&gt;&lt;span lang=&quot;FR&quot; style=&quot;text-indent: -18pt&quot;&gt;&lt;font style=&quot;font-size: 18px&quot;&gt;Nº de compte &lt;b&gt;int&lt;/b&gt;&lt;/font&gt;&lt;/span&gt;&lt;br&gt;Nom &lt;b&gt;string&lt;/b&gt;&lt;br&gt;Numéro de tel &lt;b&gt;int&lt;/b&gt;&lt;br&gt;ID du bien &lt;b&gt;string&lt;/b&gt;&lt;br&gt;Loyer &lt;b&gt;int&lt;br&gt;&lt;/b&gt;&lt;span style=&quot;font-family: &amp;#34;calibri&amp;#34; , sans-serif ; text-indent: -24px&quot;&gt;Adresse email&amp;nbsp;&lt;/span&gt;&lt;b style=&quot;font-family: &amp;#34;calibri&amp;#34; , sans-serif ; text-indent: -24px&quot;&gt;string&lt;br&gt;&lt;/b&gt;&lt;b style=&quot;font-family: &amp;#34;calibri&amp;#34; , sans-serif ; text-indent: -24px&quot;&gt;#&lt;u&gt;Nº du contrat&lt;/u&gt;&amp;nbsp;int&lt;/b&gt;&lt;b&gt;&lt;br&gt;&lt;/b&gt;&lt;/font&gt;" style="text;html=1;strokeColor=none;fillColor=none;align=left;verticalAlign=middle;whiteSpace=wrap;rounded=0;" parent="QNYM71YGBWdss-ZPMZar-0" vertex="1">
          <mxGeometry x="10" y="49.99999999999999" width="190" height="130" as="geometry" />
        </mxCell>
        <mxCell id="21Pu88llCasi5E5XqJA8-1" value="" style="shape=waypoint;sketch=0;fillStyle=solid;size=6;pointerEvents=1;points=[];fillColor=none;resizable=0;rotatable=0;perimeter=centerPerimeter;snapToPoint=1;align=left;" parent="QNYM71YGBWdss-ZPMZar-0" vertex="1">
          <mxGeometry x="-20" y="31.879999999999995" width="40" height="40" as="geometry" />
        </mxCell>
        <mxCell id="QNYM71YGBWdss-ZPMZar-1" value="Propriétaire" style="swimlane;fontSize=20;" parent="MGNAUimHkOiYEwmKtxIL-1" vertex="1">
          <mxGeometry x="1690" y="70" width="230" height="220" as="geometry" />
        </mxCell>
        <mxCell id="QNYM71YGBWdss-ZPMZar-43" value="&lt;p class=&quot;MsoListParagraphCxSpFirst&quot; style=&quot;margin: 0cm 0cm 0cm 36pt ; line-height: 15.6933px ; font-size: 11pt ; font-family: &amp;#34;calibri&amp;#34; , sans-serif ; text-indent: -18pt&quot;&gt;&lt;/p&gt;&lt;p class=&quot;MsoListParagraphCxSpFirst&quot; style=&quot;margin: 0cm 0cm 0cm 36pt ; line-height: 15.6933px ; font-size: 11pt ; font-family: &amp;#34;calibri&amp;#34; , sans-serif ; text-indent: -18pt ; display: inline&quot;&gt;&lt;/p&gt;&lt;div style=&quot;font-size: 18px&quot;&gt;&lt;span style=&quot;text-indent: -18pt&quot;&gt;&lt;font style=&quot;font-size: 18px&quot;&gt;I&lt;b&gt;&lt;u&gt;D de propriétaire&lt;/u&gt;&lt;/b&gt; &lt;b&gt;string&lt;/b&gt;&lt;/font&gt;&lt;/span&gt;&lt;/div&gt;&lt;div style=&quot;font-size: 18px&quot;&gt;Nº de compte &lt;b&gt;int&lt;/b&gt;&lt;/div&gt;&lt;div style=&quot;font-size: 18px&quot;&gt;&lt;span style=&quot;font-family: &amp;#34;calibri&amp;#34; , sans-serif ; text-indent: -18pt&quot;&gt;Nom &lt;b&gt;string&amp;nbsp;&lt;/b&gt;&lt;/span&gt;&lt;/div&gt;&lt;div style=&quot;font-size: 18px&quot;&gt;&lt;span style=&quot;font-family: &amp;#34;calibri&amp;#34; , sans-serif ; text-indent: -18pt&quot;&gt;Liste de biens &lt;b&gt;string&lt;/b&gt;&lt;/span&gt;&lt;/div&gt;&lt;div style=&quot;font-size: 18px&quot;&gt;&lt;span style=&quot;font-family: &amp;#34;calibri&amp;#34; , sans-serif ; text-indent: -18pt&quot;&gt;(ID du bien, adresse)&lt;/span&gt;&lt;/div&gt;&lt;div style=&quot;font-size: 18px&quot;&gt;&lt;span style=&quot;font-family: &amp;#34;calibri&amp;#34; , sans-serif ; text-indent: -18pt&quot;&gt;Numéro de Tel &lt;b&gt;int&lt;/b&gt;&lt;/span&gt;&lt;/div&gt;&lt;div style=&quot;font-size: 18px&quot;&gt;&lt;span style=&quot;font-family: &amp;#34;calibri&amp;#34; , sans-serif ; text-indent: -24px&quot;&gt;Adresse email&amp;nbsp;&lt;/span&gt;&lt;b style=&quot;font-family: &amp;#34;calibri&amp;#34; , sans-serif ; text-indent: -24px&quot;&gt;string&lt;/b&gt;&lt;span style=&quot;font-family: &amp;#34;calibri&amp;#34; , sans-serif ; text-indent: -18pt&quot;&gt;&lt;b&gt;&lt;br&gt;&lt;/b&gt;&lt;/span&gt;&lt;/div&gt;&lt;div style=&quot;font-size: 18px&quot;&gt;&lt;b style=&quot;font-family: &amp;#34;calibri&amp;#34; , sans-serif ; text-indent: -24px&quot;&gt;#&lt;u&gt;Nº du contrat&lt;/u&gt; int&lt;/b&gt;&lt;/div&gt;&lt;div style=&quot;text-indent: -24px ; font-size: 18px&quot;&gt;&lt;br&gt;&lt;/div&gt;" style="text;html=1;strokeColor=none;fillColor=none;align=left;verticalAlign=middle;whiteSpace=wrap;rounded=0;" parent="QNYM71YGBWdss-ZPMZar-1" vertex="1">
          <mxGeometry x="10" y="50" width="220" height="130" as="geometry" />
        </mxCell>
        <mxCell id="QNYM71YGBWdss-ZPMZar-2" value="Bien" style="swimlane;startSize=40;fontSize=20;" parent="MGNAUimHkOiYEwmKtxIL-1" vertex="1">
          <mxGeometry x="1009.5" y="440" width="290" height="270" as="geometry" />
        </mxCell>
        <mxCell id="QNYM71YGBWdss-ZPMZar-41" value="&lt;p class=&quot;MsoListParagraphCxSpFirst&quot; style=&quot;margin: 0cm 0cm 0cm 36pt ; line-height: 15.6933px ; font-size: 11pt ; font-family: &amp;#34;calibri&amp;#34; , sans-serif ; text-indent: -18pt&quot;&gt;&lt;/p&gt;&lt;p class=&quot;MsoListParagraphCxSpFirst&quot; style=&quot;margin: 0cm 0cm 0cm 36pt ; line-height: 15.6933px ; font-size: 11pt ; font-family: &amp;#34;calibri&amp;#34; , sans-serif ; text-indent: -18pt ; display: inline&quot;&gt;&lt;/p&gt;&lt;p class=&quot;MsoListParagraphCxSpFirst&quot; style=&quot;text-align: left ; margin: 0cm 0cm 0cm 36pt ; line-height: 15.6933px ; font-family: &amp;#34;calibri&amp;#34; , sans-serif ; text-indent: -18pt ; font-size: 18px&quot;&gt;&lt;span lang=&quot;FR&quot;&gt;&lt;font style=&quot;font-size: 18px&quot;&gt;&lt;b&gt;&lt;u&gt;ID du bien&lt;/u&gt;&lt;/b&gt; &lt;b&gt;string&lt;/b&gt;&amp;nbsp;&lt;/font&gt;&lt;/span&gt;&lt;/p&gt;&lt;p class=&quot;MsoListParagraphCxSpFirst&quot; style=&quot;text-align: left ; margin: 0cm 0cm 0cm 36pt ; line-height: 15.6933px ; font-family: &amp;#34;calibri&amp;#34; , sans-serif ; text-indent: -18pt ; font-size: 18px&quot;&gt;&lt;span style=&quot;text-indent: -18pt&quot;&gt;Statut &lt;b&gt;string&lt;/b&gt;&lt;/span&gt;&lt;/p&gt;&lt;p class=&quot;MsoListParagraphCxSpMiddle&quot; style=&quot;text-align: left ; margin: 0cm 0cm 0cm 36pt ; line-height: 15.6933px ; font-family: &amp;#34;calibri&amp;#34; , sans-serif ; text-indent: -18pt ; font-size: 18px&quot;&gt;&lt;span lang=&quot;FR&quot;&gt;&lt;font style=&quot;font-size: 18px&quot;&gt;Adresse&amp;nbsp;&lt;b&gt;&amp;nbsp;string&amp;nbsp;&lt;/b&gt;&lt;/font&gt;&lt;/span&gt;&lt;/p&gt;&lt;p class=&quot;MsoListParagraphCxSpMiddle&quot; style=&quot;text-align: left ; margin: 0cm 0cm 0cm 36pt ; line-height: 15.6933px ; font-family: &amp;#34;calibri&amp;#34; , sans-serif ; text-indent: -18pt ; font-size: 18px&quot;&gt;&lt;span lang=&quot;FR&quot;&gt;&lt;font style=&quot;font-size: 18px&quot;&gt;Loyer &lt;b&gt;int&lt;/b&gt;&lt;/font&gt;&lt;/span&gt;&lt;/p&gt;&lt;p class=&quot;MsoListParagraphCxSpMiddle&quot; style=&quot;text-align: left ; margin: 0cm 0cm 0cm 36pt ; line-height: 15.6933px ; font-family: &amp;#34;calibri&amp;#34; , sans-serif ; text-indent: -18pt ; font-size: 18px&quot;&gt;&lt;span lang=&quot;FR&quot;&gt;&lt;font style=&quot;font-size: 18px&quot;&gt;Charges &lt;b&gt;int&lt;/b&gt;&lt;/font&gt;&lt;/span&gt;&lt;/p&gt;&lt;p class=&quot;MsoListParagraphCxSpMiddle&quot; style=&quot;text-align: left ; margin: 0cm 0cm 0cm 36pt ; line-height: 15.6933px ; font-family: &amp;#34;calibri&amp;#34; , sans-serif ; text-indent: -18pt ; font-size: 18px&quot;&gt;&lt;span lang=&quot;FR&quot;&gt;&lt;font style=&quot;font-size: 18px&quot;&gt;Types de bails &lt;b&gt;string&lt;/b&gt;&lt;/font&gt;&lt;/span&gt;&lt;/p&gt;&lt;p class=&quot;MsoListParagraphCxSpMiddle&quot; style=&quot;text-align: left ; margin: 0cm 0cm 0cm 36pt ; line-height: 15.6933px ; font-family: &amp;#34;calibri&amp;#34; , sans-serif ; text-indent: -18pt ; font-size: 18px&quot;&gt;&lt;span lang=&quot;FR&quot;&gt;&lt;font style=&quot;font-size: 18px&quot;&gt;Garniture &lt;b&gt;string&lt;/b&gt;&lt;/font&gt;&lt;/span&gt;&lt;/p&gt;&lt;p class=&quot;MsoListParagraphCxSpMiddle&quot; style=&quot;text-align: left ; margin: 0cm 0cm 0cm 36pt ; line-height: 15.6933px ; font-family: &amp;#34;calibri&amp;#34; , sans-serif ; text-indent: -18pt ; font-size: 18px&quot;&gt;&lt;span lang=&quot;FR&quot;&gt;&lt;font style=&quot;font-size: 18px&quot;&gt;Description &lt;b&gt;string&lt;/b&gt;&lt;/font&gt;&lt;/span&gt;&lt;/p&gt;&lt;p class=&quot;MsoListParagraphCxSpMiddle&quot; style=&quot;text-align: left ; margin: 0cm 0cm 0cm 36pt ; line-height: 15.6933px ; font-family: &amp;#34;calibri&amp;#34; , sans-serif ; text-indent: -18pt ; font-size: 18px&quot;&gt;&lt;span lang=&quot;FR&quot;&gt;&lt;font style=&quot;font-size: 18px&quot;&gt;Caution &lt;b&gt;int&lt;/b&gt;&lt;/font&gt;&lt;/span&gt;&lt;/p&gt;&lt;p class=&quot;MsoListParagraphCxSpMiddle&quot; style=&quot;text-align: left ; margin: 0cm 0cm 0cm 36pt ; line-height: 15.6933px ; font-family: &amp;#34;calibri&amp;#34; , sans-serif ; text-indent: -18pt ; font-size: 18px&quot;&gt;&lt;span lang=&quot;FR&quot;&gt;&lt;font style=&quot;font-size: 18px&quot;&gt;Extérieur &lt;b&gt;string&lt;/b&gt;&lt;/font&gt;&lt;/span&gt;&lt;/p&gt;&lt;p class=&quot;MsoListParagraphCxSpMiddle&quot; style=&quot;text-align: left ; margin: 0cm 0cm 0cm 36pt ; line-height: 15.6933px ; font-family: &amp;#34;calibri&amp;#34; , sans-serif ; text-indent: -18pt ; font-size: 18px&quot;&gt;&lt;span lang=&quot;FR&quot; style=&quot;text-indent: -18pt&quot;&gt;PEB &lt;b&gt;string&lt;/b&gt;&lt;/span&gt;&lt;/p&gt;&lt;p class=&quot;MsoListParagraphCxSpMiddle&quot; style=&quot;text-align: left ; margin: 0cm 0cm 0cm 36pt ; line-height: 15.6933px ; font-family: &amp;#34;calibri&amp;#34; , sans-serif ; text-indent: -18pt ; font-size: 18px&quot;&gt;&lt;span style=&quot;text-indent: -18pt ; font-family: &amp;#34;helvetica&amp;#34;&quot;&gt;&lt;b&gt;&lt;u&gt;#ID de propriétaire&lt;/u&gt;&lt;/b&gt;&amp;nbsp;&lt;/span&gt;&lt;b style=&quot;text-indent: -18pt ; font-family: &amp;#34;helvetica&amp;#34;&quot;&gt;string&lt;/b&gt;&lt;/p&gt;&lt;p class=&quot;MsoListParagraphCxSpMiddle&quot; style=&quot;text-align: left ; margin: 0cm 0cm 0cm 36pt ; line-height: 15.6933px ; font-family: &amp;#34;calibri&amp;#34; , sans-serif ; text-indent: -18pt ; font-size: 18px&quot;&gt;&lt;span style=&quot;text-indent: -18pt ; font-family: &amp;#34;helvetica&amp;#34;&quot;&gt;&lt;b&gt;&lt;u&gt;#ID de locataire&lt;/u&gt;&lt;/b&gt;&amp;nbsp;&lt;/span&gt;&lt;b style=&quot;text-indent: -18pt ; font-family: &amp;#34;helvetica&amp;#34;&quot;&gt;string&lt;/b&gt;&lt;b style=&quot;text-indent: -18pt ; font-family: &amp;#34;helvetica&amp;#34;&quot;&gt;&lt;br&gt;&lt;/b&gt;&lt;/p&gt;" style="text;html=1;strokeColor=none;fillColor=none;align=center;verticalAlign=middle;whiteSpace=wrap;rounded=0;spacingTop=0;" parent="QNYM71YGBWdss-ZPMZar-2" vertex="1">
          <mxGeometry x="9" y="-20" width="272" height="310" as="geometry" />
        </mxCell>
        <mxCell id="21Pu88llCasi5E5XqJA8-5" value="" style="shape=waypoint;sketch=0;fillStyle=solid;size=6;pointerEvents=1;points=[];fillColor=none;resizable=0;rotatable=0;perimeter=centerPerimeter;snapToPoint=1;align=left;" parent="QNYM71YGBWdss-ZPMZar-2" vertex="1">
          <mxGeometry x="18" y="40" width="40" height="40" as="geometry" />
        </mxCell>
        <mxCell id="QNYM71YGBWdss-ZPMZar-3" value="Maison" style="swimlane;fontSize=20;startSize=39;" parent="MGNAUimHkOiYEwmKtxIL-1" vertex="1">
          <mxGeometry x="179.5" y="600" width="220" height="160" as="geometry" />
        </mxCell>
        <mxCell id="QNYM71YGBWdss-ZPMZar-38" value="&lt;p class=&quot;MsoListParagraphCxSpFirst&quot; style=&quot;margin: 0cm 0cm 0cm 36pt ; line-height: 15.6933px ; font-size: 20px ; font-family: &amp;#34;calibri&amp;#34; , sans-serif ; text-indent: -18pt&quot;&gt;&lt;/p&gt;&lt;p class=&quot;MsoListParagraphCxSpFirst&quot; style=&quot;margin: 0cm 0cm 0cm 36pt ; line-height: 15.6933px ; text-indent: -18pt ; display: inline ; font-size: 20px&quot;&gt;&lt;/p&gt;&lt;div style=&quot;text-indent: -24px ; font-size: 18px&quot;&gt;&lt;font face=&quot;calibri, sans-serif&quot; style=&quot;font-size: 18px&quot;&gt;Nbr chambres &lt;b&gt;int&lt;/b&gt;&lt;/font&gt;&lt;/div&gt;&lt;div style=&quot;text-indent: -24px ; font-size: 18px&quot;&gt;&lt;font face=&quot;calibri, sans-serif&quot; style=&quot;font-size: 18px&quot;&gt;Nbr étages &lt;b&gt;int&lt;/b&gt;&amp;nbsp;&amp;nbsp;&lt;/font&gt;&lt;/div&gt;&lt;div style=&quot;text-indent: -24px ; font-size: 18px&quot;&gt;&lt;span style=&quot;font-family: &amp;#34;calibri&amp;#34; , sans-serif&quot;&gt;Garage &lt;b&gt;string&lt;/b&gt;&lt;/span&gt;&lt;/div&gt;&lt;div style=&quot;text-indent: -24px ; font-size: 18px&quot;&gt;&lt;span style=&quot;font-family: &amp;#34;calibri&amp;#34; , sans-serif&quot;&gt;&lt;u&gt;&lt;b&gt;#I&lt;/b&gt;&lt;/u&gt;&lt;b&gt;&lt;u&gt;D du bien&lt;/u&gt;&amp;nbsp;&lt;/b&gt;&lt;/span&gt;&lt;b style=&quot;font-family: &amp;#34;calibri&amp;#34; , sans-serif&quot;&gt;string&lt;/b&gt;&lt;span style=&quot;font-family: &amp;#34;calibri&amp;#34; , sans-serif&quot;&gt;&lt;b&gt;&lt;br&gt;&lt;/b&gt;&lt;/span&gt;&lt;/div&gt;&lt;div style=&quot;text-indent: -24px ; font-size: 18px&quot;&gt;&lt;b style=&quot;font-family: &amp;#34;calibri&amp;#34; , sans-serif&quot;&gt;&lt;br&gt;&lt;/b&gt;&lt;/div&gt;&lt;p style=&quot;font-size: 20px&quot;&gt;&lt;/p&gt;" style="text;html=1;strokeColor=none;fillColor=none;align=left;verticalAlign=middle;whiteSpace=wrap;rounded=0;fontSize=20;" parent="QNYM71YGBWdss-ZPMZar-3" vertex="1">
          <mxGeometry x="60" y="60" width="140" height="80" as="geometry" />
        </mxCell>
        <mxCell id="21Pu88llCasi5E5XqJA8-0" value="" style="shape=waypoint;sketch=0;fillStyle=solid;size=6;pointerEvents=1;points=[];fillColor=none;resizable=0;rotatable=0;perimeter=centerPerimeter;snapToPoint=1;align=left;" parent="QNYM71YGBWdss-ZPMZar-3" vertex="1">
          <mxGeometry x="180" y="103" width="40" height="40" as="geometry" />
        </mxCell>
        <mxCell id="QNYM71YGBWdss-ZPMZar-4" value="Appart" style="swimlane;rounded=0;startSize=40;fontSize=20;" parent="MGNAUimHkOiYEwmKtxIL-1" vertex="1">
          <mxGeometry x="189.5" y="366" width="210" height="160" as="geometry" />
        </mxCell>
        <mxCell id="QNYM71YGBWdss-ZPMZar-39" value="&lt;p class=&quot;MsoListParagraphCxSpFirst&quot; style=&quot;margin: 0cm 0cm 0cm 36pt ; line-height: 15.6933px ; font-size: 11pt ; font-family: &amp;#34;calibri&amp;#34; , sans-serif ; text-indent: -18pt&quot;&gt;&lt;/p&gt;&lt;p class=&quot;MsoListParagraphCxSpFirst&quot; style=&quot;margin: 0cm 0cm 0cm 36pt ; line-height: 15.6933px ; text-indent: -18pt ; display: inline&quot;&gt;&lt;/p&gt;&lt;div style=&quot;text-indent: -24px ; font-size: 20px&quot;&gt;&lt;font face=&quot;calibri, sans-serif&quot; style=&quot;font-size: 20px&quot;&gt;Nbr chambres &lt;b&gt;int&lt;/b&gt;&lt;/font&gt;&lt;/div&gt;&lt;div style=&quot;text-indent: -24px ; font-size: 20px&quot;&gt;&lt;font face=&quot;calibri, sans-serif&quot; style=&quot;font-size: 20px&quot;&gt;Nº étage &lt;b&gt;int&lt;/b&gt;&lt;/font&gt;&lt;/div&gt;&lt;div style=&quot;text-indent: -24px ; font-size: 20px&quot;&gt;&lt;font face=&quot;calibri, sans-serif&quot; style=&quot;font-size: 20px&quot;&gt;Garage &lt;b&gt;string&lt;/b&gt;&lt;/font&gt;&lt;/div&gt;&lt;div style=&quot;text-indent: -24px ; font-size: 20px&quot;&gt;&lt;span style=&quot;font-size: 18px ; font-family: &amp;#34;calibri&amp;#34; , sans-serif&quot;&gt;&lt;u&gt;&lt;b&gt;#I&lt;/b&gt;&lt;/u&gt;&lt;b&gt;&lt;u&gt;D du bien&lt;/u&gt;&amp;nbsp;&lt;/b&gt;&lt;/span&gt;&lt;b style=&quot;font-size: 18px ; font-family: &amp;#34;calibri&amp;#34; , sans-serif&quot;&gt;string&lt;/b&gt;&lt;font face=&quot;calibri, sans-serif&quot; style=&quot;font-size: 20px&quot;&gt;&lt;b&gt;&lt;br&gt;&lt;/b&gt;&lt;/font&gt;&lt;/div&gt;&lt;p&gt;&lt;/p&gt;" style="text;html=1;strokeColor=none;fillColor=none;align=left;verticalAlign=middle;whiteSpace=wrap;rounded=0;" parent="QNYM71YGBWdss-ZPMZar-4" vertex="1">
          <mxGeometry x="45.25" y="56.870000000000005" width="154.75" height="80" as="geometry" />
        </mxCell>
        <mxCell id="21Pu88llCasi5E5XqJA8-3" value="" style="shape=waypoint;sketch=0;fillStyle=solid;size=6;pointerEvents=1;points=[];fillColor=none;resizable=0;rotatable=0;perimeter=centerPerimeter;snapToPoint=1;align=left;" parent="QNYM71YGBWdss-ZPMZar-4" vertex="1">
          <mxGeometry x="163" y="116" width="40" height="40" as="geometry" />
        </mxCell>
        <mxCell id="QNYM71YGBWdss-ZPMZar-5" value="Studio" style="swimlane;startSize=40;fontSize=20;" parent="MGNAUimHkOiYEwmKtxIL-1" vertex="1">
          <mxGeometry x="200" y="130" width="199.5" height="160" as="geometry" />
        </mxCell>
        <mxCell id="QNYM71YGBWdss-ZPMZar-40" value="&lt;p class=&quot;MsoListParagraphCxSpFirst&quot; style=&quot;margin: 0cm 0cm 0cm 36pt ; line-height: 15.6933px ; font-size: 11pt ; font-family: &amp;#34;calibri&amp;#34; , sans-serif ; text-indent: -18pt&quot;&gt;&lt;/p&gt;&lt;p class=&quot;MsoListParagraphCxSpFirst&quot; style=&quot;margin: 0cm 0cm 0cm 36pt ; line-height: 15.6933px ; text-indent: -18pt ; display: inline&quot;&gt;&lt;/p&gt;&lt;div style=&quot;text-indent: -24px ; font-size: 20px&quot;&gt;&lt;span style=&quot;font-family: &amp;#34;calibri&amp;#34; , sans-serif&quot;&gt;Nº étage &lt;b&gt;int&lt;/b&gt;&lt;/span&gt;&lt;br&gt;&lt;/div&gt;&lt;div style=&quot;text-indent: -24px ; font-size: 20px&quot;&gt;&lt;span style=&quot;font-size: 18px ; font-family: &amp;#34;calibri&amp;#34; , sans-serif&quot;&gt;&lt;u&gt;&lt;b&gt;#I&lt;/b&gt;&lt;/u&gt;&lt;b&gt;&lt;u&gt;D du bien&lt;/u&gt;&amp;nbsp;&lt;/b&gt;&lt;/span&gt;&lt;b style=&quot;font-size: 18px ; font-family: &amp;#34;calibri&amp;#34; , sans-serif&quot;&gt;string&lt;/b&gt;&lt;span style=&quot;font-family: &amp;#34;calibri&amp;#34; , sans-serif&quot;&gt;&lt;b&gt;&lt;br&gt;&lt;/b&gt;&lt;/span&gt;&lt;/div&gt;&lt;p&gt;&lt;/p&gt;" style="text;html=1;strokeColor=none;fillColor=none;align=left;verticalAlign=middle;whiteSpace=wrap;rounded=0;" parent="QNYM71YGBWdss-ZPMZar-5" vertex="1">
          <mxGeometry x="39.5" y="65" width="150.5" height="63.74" as="geometry" />
        </mxCell>
        <mxCell id="21Pu88llCasi5E5XqJA8-4" value="" style="shape=waypoint;sketch=0;fillStyle=solid;size=6;pointerEvents=1;points=[];fillColor=none;resizable=0;rotatable=0;perimeter=centerPerimeter;snapToPoint=1;align=left;" parent="QNYM71YGBWdss-ZPMZar-5" vertex="1">
          <mxGeometry x="156.5" y="92.87" width="40" height="40" as="geometry" />
        </mxCell>
        <mxCell id="21Pu88llCasi5E5XqJA8-6" style="edgeStyle=orthogonalEdgeStyle;rounded=0;orthogonalLoop=1;jettySize=auto;html=1;entryX=0.605;entryY=0.678;entryDx=0;entryDy=0;entryPerimeter=0;" parent="MGNAUimHkOiYEwmKtxIL-1" source="21Pu88llCasi5E5XqJA8-0" target="21Pu88llCasi5E5XqJA8-5" edge="1">
          <mxGeometry relative="1" as="geometry">
            <Array as="points">
              <mxPoint x="870" y="723" />
              <mxPoint x="870" y="500" />
            </Array>
          </mxGeometry>
        </mxCell>
        <mxCell id="21Pu88llCasi5E5XqJA8-7" style="edgeStyle=orthogonalEdgeStyle;rounded=0;orthogonalLoop=1;jettySize=auto;html=1;entryX=0.664;entryY=0.472;entryDx=0;entryDy=0;entryPerimeter=0;" parent="MGNAUimHkOiYEwmKtxIL-1" source="21Pu88llCasi5E5XqJA8-3" target="21Pu88llCasi5E5XqJA8-5" edge="1">
          <mxGeometry relative="1" as="geometry">
            <Array as="points">
              <mxPoint x="373" y="500" />
            </Array>
          </mxGeometry>
        </mxCell>
        <mxCell id="21Pu88llCasi5E5XqJA8-8" style="edgeStyle=orthogonalEdgeStyle;rounded=0;orthogonalLoop=1;jettySize=auto;html=1;entryX=0.517;entryY=0.619;entryDx=0;entryDy=0;entryPerimeter=0;" parent="MGNAUimHkOiYEwmKtxIL-1" source="21Pu88llCasi5E5XqJA8-4" target="21Pu88llCasi5E5XqJA8-5" edge="1">
          <mxGeometry relative="1" as="geometry">
            <Array as="points">
              <mxPoint x="870" y="243" />
              <mxPoint x="870" y="500" />
            </Array>
          </mxGeometry>
        </mxCell>
        <mxCell id="fBzsahPYCDQERROr04k0-2" style="edgeStyle=orthogonalEdgeStyle;rounded=0;orthogonalLoop=1;jettySize=auto;html=1;" parent="MGNAUimHkOiYEwmKtxIL-1" target="21Pu88llCasi5E5XqJA8-1" edge="1">
          <mxGeometry relative="1" as="geometry">
            <mxPoint x="1290" y="680" as="sourcePoint" />
            <Array as="points">
              <mxPoint x="1670" y="680" />
              <mxPoint x="1670" y="640" />
            </Array>
          </mxGeometry>
        </mxCell>
        <mxCell id="fBzsahPYCDQERROr04k0-3" style="edgeStyle=orthogonalEdgeStyle;rounded=0;orthogonalLoop=1;jettySize=auto;html=1;exitX=1;exitY=0.75;exitDx=0;exitDy=0;entryX=-0.024;entryY=0.131;entryDx=0;entryDy=0;entryPerimeter=0;" parent="MGNAUimHkOiYEwmKtxIL-1" source="QNYM71YGBWdss-ZPMZar-41" target="QNYM71YGBWdss-ZPMZar-43" edge="1">
          <mxGeometry relative="1" as="geometry">
            <mxPoint x="1550" y="139.9999999999999" as="targetPoint" />
            <Array as="points">
              <mxPoint x="1370" y="653" />
              <mxPoint x="1370" y="140" />
              <mxPoint x="1695" y="140" />
            </Array>
          </mxGeometry>
        </mxCell>
        <mxCell id="m_0HQkUbb6ww3j28qL1H-0" value="Contrat" style="swimlane;fontSize=18;align=center;" parent="MGNAUimHkOiYEwmKtxIL-1" vertex="1">
          <mxGeometry x="2040" y="314" width="200" height="200" as="geometry" />
        </mxCell>
        <mxCell id="m_0HQkUbb6ww3j28qL1H-1" value="&lt;font style=&quot;font-size: 18px&quot;&gt;Loyer&amp;nbsp; &lt;b&gt;int&lt;/b&gt;&lt;br&gt;Début bail &lt;b&gt;int&amp;nbsp;&lt;/b&gt;&lt;br&gt;Fin bail &lt;b&gt;int&amp;nbsp;&lt;br&gt;&lt;/b&gt;Nbr locataire &lt;b&gt;int&lt;/b&gt;&lt;br&gt;Type contrat &lt;b&gt;string&lt;br&gt;&lt;u&gt;Nº du contrat int&amp;nbsp;&lt;/u&gt;&lt;/b&gt;&lt;br&gt;&lt;br&gt;&lt;/font&gt;" style="text;html=1;align=left;verticalAlign=middle;resizable=0;points=[];autosize=1;strokeColor=none;fillColor=none;" parent="m_0HQkUbb6ww3j28qL1H-0" vertex="1">
          <mxGeometry x="15.25" y="60" width="170" height="120" as="geometry" />
        </mxCell>
        <mxCell id="m_0HQkUbb6ww3j28qL1H-3" value="" style="endArrow=classic;html=1;rounded=0;" parent="MGNAUimHkOiYEwmKtxIL-1" edge="1">
          <mxGeometry width="50" height="50" relative="1" as="geometry">
            <mxPoint x="1880" y="760" as="sourcePoint" />
            <mxPoint x="2050" y="480" as="targetPoint" />
            <Array as="points">
              <mxPoint x="1970" y="760" />
              <mxPoint x="1970" y="480" />
            </Array>
          </mxGeometry>
        </mxCell>
        <mxCell id="m_0HQkUbb6ww3j28qL1H-4" value="" style="endArrow=classic;html=1;rounded=0;" parent="MGNAUimHkOiYEwmKtxIL-1" edge="1">
          <mxGeometry width="50" height="50" relative="1" as="geometry">
            <mxPoint x="1870" y="260" as="sourcePoint" />
            <mxPoint x="2050" y="480" as="targetPoint" />
            <Array as="points">
              <mxPoint x="1870" y="480" />
            </Array>
          </mxGeometry>
        </mxCell>
      </root>
    </mxGraphModel>
  </diagram>
  <diagram id="Shf1PIuUm4xIgwXxTlma" name="Use Case">
    <mxGraphModel dx="2769" dy="1269" grid="1" gridSize="10" guides="1" tooltips="1" connect="1" arrows="1" fold="1" page="1" pageScale="1" pageWidth="1169" pageHeight="827" math="0" shadow="0">
      <root>
        <mxCell id="_1lMrd184p0aN324ZPrS-0" />
        <mxCell id="_1lMrd184p0aN324ZPrS-1" parent="_1lMrd184p0aN324ZPrS-0" />
        <mxCell id="450I2jvUaUmtoyAgRjkF-0" value="Kô-Loc" style="swimlane;startSize=60;fillColor=default;strokeColor=default;fontColor=default;" parent="_1lMrd184p0aN324ZPrS-1" vertex="1">
          <mxGeometry x="330" y="90" width="1220" height="1130" as="geometry">
            <mxRectangle x="330" y="40" width="130" height="23" as="alternateBounds" />
          </mxGeometry>
        </mxCell>
        <mxCell id="450I2jvUaUmtoyAgRjkF-26" style="edgeStyle=orthogonalEdgeStyle;rounded=0;orthogonalLoop=1;jettySize=auto;html=1;entryX=0;entryY=0.5;entryDx=0;entryDy=0;startArrow=none;startFill=0;endArrow=none;endFill=0;strokeColor=default;" parent="450I2jvUaUmtoyAgRjkF-0" source="450I2jvUaUmtoyAgRjkF-6" target="450I2jvUaUmtoyAgRjkF-10" edge="1">
          <mxGeometry relative="1" as="geometry" />
        </mxCell>
        <mxCell id="450I2jvUaUmtoyAgRjkF-6" value="Se connecter" style="ellipse;whiteSpace=wrap;html=1;fillColor=#fff2cc;strokeColor=#d6b656;fontColor=default;" parent="450I2jvUaUmtoyAgRjkF-0" vertex="1">
          <mxGeometry x="20" y="80" width="120" height="50" as="geometry" />
        </mxCell>
        <mxCell id="450I2jvUaUmtoyAgRjkF-10" value="enregistrer bien(s)" style="ellipse;whiteSpace=wrap;html=1;fillColor=#fff2cc;strokeColor=#d6b656;" parent="450I2jvUaUmtoyAgRjkF-0" vertex="1">
          <mxGeometry x="180" y="80" width="120" height="50" as="geometry" />
        </mxCell>
        <mxCell id="450I2jvUaUmtoyAgRjkF-14" style="edgeStyle=orthogonalEdgeStyle;rounded=0;orthogonalLoop=1;jettySize=auto;html=1;entryX=1;entryY=0.5;entryDx=0;entryDy=0;startArrow=block;startFill=1;endArrow=none;endFill=0;" parent="450I2jvUaUmtoyAgRjkF-0" source="450I2jvUaUmtoyAgRjkF-11" target="450I2jvUaUmtoyAgRjkF-10" edge="1">
          <mxGeometry relative="1" as="geometry">
            <Array as="points">
              <mxPoint x="610" y="105" />
            </Array>
          </mxGeometry>
        </mxCell>
        <mxCell id="450I2jvUaUmtoyAgRjkF-16" value="&lt;b&gt;&lt;font style=&quot;font-size: 15px&quot;&gt;includes&lt;/font&gt;&lt;/b&gt;" style="edgeLabel;html=1;align=center;verticalAlign=middle;resizable=0;points=[];" parent="450I2jvUaUmtoyAgRjkF-14" vertex="1" connectable="0">
          <mxGeometry x="-0.3289" y="1" relative="1" as="geometry">
            <mxPoint as="offset" />
          </mxGeometry>
        </mxCell>
        <mxCell id="450I2jvUaUmtoyAgRjkF-11" value="&amp;nbsp;générer&amp;nbsp; code" style="ellipse;whiteSpace=wrap;html=1;fillColor=#fff2cc;strokeColor=#d6b656;fontColor=default;" parent="450I2jvUaUmtoyAgRjkF-0" vertex="1">
          <mxGeometry x="540" y="80" width="120" height="50" as="geometry" />
        </mxCell>
        <mxCell id="450I2jvUaUmtoyAgRjkF-22" style="edgeStyle=orthogonalEdgeStyle;rounded=0;orthogonalLoop=1;jettySize=auto;html=1;entryX=1;entryY=0.5;entryDx=0;entryDy=0;" parent="450I2jvUaUmtoyAgRjkF-0" source="450I2jvUaUmtoyAgRjkF-19" target="450I2jvUaUmtoyAgRjkF-20" edge="1">
          <mxGeometry relative="1" as="geometry" />
        </mxCell>
        <mxCell id="450I2jvUaUmtoyAgRjkF-19" value="Se connecter" style="ellipse;whiteSpace=wrap;html=1;fillColor=#fff2cc;strokeColor=#d6b656;fontColor=default;" parent="450I2jvUaUmtoyAgRjkF-0" vertex="1">
          <mxGeometry x="910" y="580" width="120" height="50" as="geometry" />
        </mxCell>
        <mxCell id="450I2jvUaUmtoyAgRjkF-20" value="Introduire code" style="ellipse;whiteSpace=wrap;html=1;fillColor=#fff2cc;strokeColor=#d6b656;fontColor=default;" parent="450I2jvUaUmtoyAgRjkF-0" vertex="1">
          <mxGeometry x="680" y="580" width="120" height="50" as="geometry" />
        </mxCell>
        <mxCell id="mMcfcK8xkYXfSGvDi10W-2" value="&lt;b&gt;&lt;font style=&quot;font-size: 15px&quot;&gt;Includes&lt;/font&gt;&lt;/b&gt;" style="edgeStyle=orthogonalEdgeStyle;rounded=0;orthogonalLoop=1;jettySize=auto;html=1;entryX=1;entryY=0.5;entryDx=0;entryDy=0;" parent="450I2jvUaUmtoyAgRjkF-0" source="450I2jvUaUmtoyAgRjkF-27" target="450I2jvUaUmtoyAgRjkF-28" edge="1">
          <mxGeometry relative="1" as="geometry">
            <mxPoint x="960" y="770" as="targetPoint" />
            <Array as="points">
              <mxPoint x="850" y="835" />
              <mxPoint x="850" y="835" />
            </Array>
          </mxGeometry>
        </mxCell>
        <mxCell id="450I2jvUaUmtoyAgRjkF-27" value="Payer loyer" style="ellipse;whiteSpace=wrap;html=1;fillColor=#fff2cc;strokeColor=#d6b656;fontColor=default;" parent="450I2jvUaUmtoyAgRjkF-0" vertex="1">
          <mxGeometry x="1000" y="810" width="120" height="50" as="geometry" />
        </mxCell>
        <mxCell id="450I2jvUaUmtoyAgRjkF-28" value="recevoir confirmation" style="ellipse;whiteSpace=wrap;html=1;fillColor=#fff2cc;strokeColor=#d6b656;fontColor=default;" parent="450I2jvUaUmtoyAgRjkF-0" vertex="1">
          <mxGeometry x="710" y="810" width="120" height="50" as="geometry" />
        </mxCell>
        <mxCell id="mMcfcK8xkYXfSGvDi10W-18" value="&lt;font style=&quot;font-size: 15px&quot;&gt;&lt;b&gt;inherits&lt;/b&gt;&lt;/font&gt;" style="edgeStyle=orthogonalEdgeStyle;rounded=0;orthogonalLoop=1;jettySize=auto;html=1;entryX=0.5;entryY=0;entryDx=0;entryDy=0;" parent="450I2jvUaUmtoyAgRjkF-0" source="mMcfcK8xkYXfSGvDi10W-13" target="mMcfcK8xkYXfSGvDi10W-16" edge="1">
          <mxGeometry x="0.0769" relative="1" as="geometry">
            <Array as="points">
              <mxPoint x="130" y="310" />
              <mxPoint x="110" y="310" />
            </Array>
            <mxPoint as="offset" />
          </mxGeometry>
        </mxCell>
        <mxCell id="mMcfcK8xkYXfSGvDi10W-19" value="&lt;b&gt;&lt;font style=&quot;font-size: 15px&quot;&gt;inherits&lt;/font&gt;&lt;/b&gt;" style="edgeStyle=orthogonalEdgeStyle;rounded=0;orthogonalLoop=1;jettySize=auto;html=1;entryX=0.5;entryY=0;entryDx=0;entryDy=0;" parent="450I2jvUaUmtoyAgRjkF-0" source="mMcfcK8xkYXfSGvDi10W-13" target="mMcfcK8xkYXfSGvDi10W-17" edge="1">
          <mxGeometry x="0.4783" relative="1" as="geometry">
            <Array as="points">
              <mxPoint x="130" y="310" />
              <mxPoint x="250" y="310" />
            </Array>
            <mxPoint as="offset" />
          </mxGeometry>
        </mxCell>
        <mxCell id="mMcfcK8xkYXfSGvDi10W-20" value="&lt;b&gt;&lt;font style=&quot;font-size: 15px&quot;&gt;inherits&lt;/font&gt;&lt;/b&gt;" style="edgeStyle=orthogonalEdgeStyle;rounded=0;orthogonalLoop=1;jettySize=auto;html=1;entryX=0.5;entryY=0;entryDx=0;entryDy=0;" parent="450I2jvUaUmtoyAgRjkF-0" source="mMcfcK8xkYXfSGvDi10W-13" target="mMcfcK8xkYXfSGvDi10W-15" edge="1">
          <mxGeometry x="0.6757" relative="1" as="geometry">
            <Array as="points">
              <mxPoint x="130" y="310" />
              <mxPoint x="390" y="310" />
            </Array>
            <mxPoint as="offset" />
          </mxGeometry>
        </mxCell>
        <mxCell id="mMcfcK8xkYXfSGvDi10W-13" value="éditer bien(s)" style="ellipse;whiteSpace=wrap;html=1;fillColor=#fff2cc;strokeColor=#d6b656;fontColor=default;" parent="450I2jvUaUmtoyAgRjkF-0" vertex="1">
          <mxGeometry x="70" y="240" width="120" height="50" as="geometry" />
        </mxCell>
        <mxCell id="mMcfcK8xkYXfSGvDi10W-17" value="modifier bien(s)" style="ellipse;whiteSpace=wrap;html=1;fillColor=#fff2cc;strokeColor=#d6b656;fontColor=default;" parent="450I2jvUaUmtoyAgRjkF-0" vertex="1">
          <mxGeometry x="190" y="400" width="120" height="50" as="geometry" />
        </mxCell>
        <mxCell id="mMcfcK8xkYXfSGvDi10W-16" value="effacer bien(s)" style="ellipse;whiteSpace=wrap;html=1;fillColor=#fff2cc;strokeColor=#d6b656;fontColor=default;" parent="450I2jvUaUmtoyAgRjkF-0" vertex="1">
          <mxGeometry x="50" y="400" width="120" height="50" as="geometry" />
        </mxCell>
        <mxCell id="mMcfcK8xkYXfSGvDi10W-15" value="ajouter bien(s)" style="ellipse;whiteSpace=wrap;html=1;fillColor=#fff2cc;strokeColor=#d6b656;fontColor=default;" parent="450I2jvUaUmtoyAgRjkF-0" vertex="1">
          <mxGeometry x="330" y="400" width="120" height="50" as="geometry" />
        </mxCell>
        <mxCell id="mMcfcK8xkYXfSGvDi10W-25" value="éditer locataire(s)" style="ellipse;whiteSpace=wrap;html=1;fillColor=#fff2cc;strokeColor=#d6b656;fontColor=default;" parent="450I2jvUaUmtoyAgRjkF-0" vertex="1">
          <mxGeometry x="510" y="240" width="120" height="50" as="geometry" />
        </mxCell>
        <mxCell id="mMcfcK8xkYXfSGvDi10W-26" value="modifier locataire(s)" style="ellipse;whiteSpace=wrap;html=1;fillColor=#fff2cc;strokeColor=#d6b656;fontColor=default;" parent="450I2jvUaUmtoyAgRjkF-0" vertex="1">
          <mxGeometry x="630" y="400" width="120" height="50" as="geometry" />
        </mxCell>
        <mxCell id="mMcfcK8xkYXfSGvDi10W-23" value="&lt;b&gt;&lt;font style=&quot;font-size: 15px&quot;&gt;inherits&lt;/font&gt;&lt;/b&gt;" style="edgeStyle=orthogonalEdgeStyle;rounded=0;orthogonalLoop=1;jettySize=auto;html=1;entryX=0.5;entryY=0;entryDx=0;entryDy=0;" parent="450I2jvUaUmtoyAgRjkF-0" source="mMcfcK8xkYXfSGvDi10W-25" target="mMcfcK8xkYXfSGvDi10W-26" edge="1">
          <mxGeometry x="0.4783" relative="1" as="geometry">
            <Array as="points">
              <mxPoint x="570" y="310" />
              <mxPoint x="690" y="310" />
            </Array>
            <mxPoint as="offset" />
          </mxGeometry>
        </mxCell>
        <mxCell id="mMcfcK8xkYXfSGvDi10W-27" value="effacer locataire(s)" style="ellipse;whiteSpace=wrap;html=1;fillColor=#fff2cc;strokeColor=#d6b656;fontColor=default;" parent="450I2jvUaUmtoyAgRjkF-0" vertex="1">
          <mxGeometry x="490" y="400" width="120" height="50" as="geometry" />
        </mxCell>
        <mxCell id="mMcfcK8xkYXfSGvDi10W-22" value="&lt;b&gt;&lt;font style=&quot;font-size: 15px&quot;&gt;inherits&lt;/font&gt;&lt;/b&gt;" style="edgeStyle=orthogonalEdgeStyle;rounded=0;orthogonalLoop=1;jettySize=auto;html=1;entryX=0.5;entryY=0;entryDx=0;entryDy=0;" parent="450I2jvUaUmtoyAgRjkF-0" source="mMcfcK8xkYXfSGvDi10W-25" target="mMcfcK8xkYXfSGvDi10W-27" edge="1">
          <mxGeometry x="0.0769" relative="1" as="geometry">
            <Array as="points">
              <mxPoint x="570" y="310" />
              <mxPoint x="550" y="310" />
            </Array>
            <mxPoint as="offset" />
          </mxGeometry>
        </mxCell>
        <mxCell id="mMcfcK8xkYXfSGvDi10W-34" style="edgeStyle=orthogonalEdgeStyle;rounded=0;orthogonalLoop=1;jettySize=auto;html=1;entryX=0.5;entryY=1;entryDx=0;entryDy=0;" parent="450I2jvUaUmtoyAgRjkF-0" source="mMcfcK8xkYXfSGvDi10W-28" target="mMcfcK8xkYXfSGvDi10W-30" edge="1">
          <mxGeometry relative="1" as="geometry">
            <Array as="points">
              <mxPoint x="990" y="425" />
            </Array>
          </mxGeometry>
        </mxCell>
        <mxCell id="mMcfcK8xkYXfSGvDi10W-28" value="ajouter locataire(s)" style="ellipse;whiteSpace=wrap;html=1;fillColor=#fff2cc;strokeColor=#d6b656;fontColor=default;" parent="450I2jvUaUmtoyAgRjkF-0" vertex="1">
          <mxGeometry x="770" y="400" width="120" height="50" as="geometry" />
        </mxCell>
        <mxCell id="mMcfcK8xkYXfSGvDi10W-24" value="&lt;b&gt;&lt;font style=&quot;font-size: 15px&quot;&gt;inherits&lt;/font&gt;&lt;/b&gt;" style="edgeStyle=orthogonalEdgeStyle;rounded=0;orthogonalLoop=1;jettySize=auto;html=1;entryX=0.5;entryY=0;entryDx=0;entryDy=0;" parent="450I2jvUaUmtoyAgRjkF-0" source="mMcfcK8xkYXfSGvDi10W-25" target="mMcfcK8xkYXfSGvDi10W-28" edge="1">
          <mxGeometry x="0.6757" relative="1" as="geometry">
            <Array as="points">
              <mxPoint x="570" y="310" />
              <mxPoint x="830" y="310" />
            </Array>
            <mxPoint as="offset" />
          </mxGeometry>
        </mxCell>
        <mxCell id="mMcfcK8xkYXfSGvDi10W-32" value="&lt;b&gt;&lt;font style=&quot;font-size: 15px&quot;&gt;extends&lt;/font&gt;&lt;/b&gt;" style="edgeStyle=orthogonalEdgeStyle;rounded=0;orthogonalLoop=1;jettySize=auto;html=1;entryX=1;entryY=0.5;entryDx=0;entryDy=0;" parent="450I2jvUaUmtoyAgRjkF-0" source="mMcfcK8xkYXfSGvDi10W-30" target="450I2jvUaUmtoyAgRjkF-11" edge="1">
          <mxGeometry relative="1" as="geometry">
            <Array as="points">
              <mxPoint x="880" y="105" />
              <mxPoint x="880" y="105" />
            </Array>
          </mxGeometry>
        </mxCell>
        <mxCell id="mMcfcK8xkYXfSGvDi10W-30" value="envoyer code" style="ellipse;whiteSpace=wrap;html=1;fillColor=#fff2cc;strokeColor=#d6b656;fontColor=default;" parent="450I2jvUaUmtoyAgRjkF-0" vertex="1">
          <mxGeometry x="930" y="80" width="120" height="50" as="geometry" />
        </mxCell>
        <mxCell id="VaKd6Z0m2Zi934vndcKF-3" style="edgeStyle=orthogonalEdgeStyle;rounded=0;orthogonalLoop=1;jettySize=auto;html=1;entryX=0.5;entryY=1;entryDx=0;entryDy=0;" parent="450I2jvUaUmtoyAgRjkF-0" source="mMcfcK8xkYXfSGvDi10W-36" target="mMcfcK8xkYXfSGvDi10W-27" edge="1">
          <mxGeometry relative="1" as="geometry" />
        </mxCell>
        <mxCell id="VaKd6Z0m2Zi934vndcKF-4" value="&lt;font style=&quot;font-size: 15px&quot;&gt;&lt;b&gt;Includes&lt;/b&gt;&lt;/font&gt;" style="edgeLabel;html=1;align=center;verticalAlign=middle;resizable=0;points=[];" parent="VaKd6Z0m2Zi934vndcKF-3" connectable="0" vertex="1">
          <mxGeometry x="-0.1052" y="2" relative="1" as="geometry">
            <mxPoint as="offset" />
          </mxGeometry>
        </mxCell>
        <mxCell id="mMcfcK8xkYXfSGvDi10W-36" value="résilier" style="ellipse;whiteSpace=wrap;html=1;fillColor=#fff2cc;strokeColor=#d6b656;fontColor=default;" parent="450I2jvUaUmtoyAgRjkF-0" vertex="1">
          <mxGeometry x="680" y="500" width="120" height="50" as="geometry" />
        </mxCell>
        <mxCell id="mMcfcK8xkYXfSGvDi10W-38" value="indexer" style="ellipse;whiteSpace=wrap;html=1;fillColor=#fff2cc;strokeColor=#d6b656;fontColor=default;" parent="450I2jvUaUmtoyAgRjkF-0" vertex="1">
          <mxGeometry x="140" y="700" width="120" height="50" as="geometry" />
        </mxCell>
        <mxCell id="TSdeb8TSLL2Ijhmt7mgY-2" value="Régler la requête" style="ellipse;whiteSpace=wrap;html=1;fillColor=#FFF2CC;strokeColor=#D6B656;" parent="450I2jvUaUmtoyAgRjkF-0" vertex="1">
          <mxGeometry x="180" y="910" width="120" height="50" as="geometry" />
        </mxCell>
        <mxCell id="fqPnqMquBYUFKSsKY0oJ-3" value="" style="edgeStyle=orthogonalEdgeStyle;rounded=0;orthogonalLoop=1;jettySize=auto;html=1;" edge="1" parent="450I2jvUaUmtoyAgRjkF-0" source="TSdeb8TSLL2Ijhmt7mgY-4" target="TSdeb8TSLL2Ijhmt7mgY-2">
          <mxGeometry relative="1" as="geometry" />
        </mxCell>
        <mxCell id="fqPnqMquBYUFKSsKY0oJ-4" value="&lt;font style=&quot;font-size: 14px&quot;&gt;&lt;b&gt;Extends&lt;/b&gt;&lt;/font&gt;" style="edgeLabel;html=1;align=center;verticalAlign=middle;resizable=0;points=[];" vertex="1" connectable="0" parent="fqPnqMquBYUFKSsKY0oJ-3">
          <mxGeometry x="0.2889" y="-1" relative="1" as="geometry">
            <mxPoint as="offset" />
          </mxGeometry>
        </mxCell>
        <mxCell id="TSdeb8TSLL2Ijhmt7mgY-4" value="consulter prestataires" style="ellipse;whiteSpace=wrap;html=1;fillColor=#FFF2CC;strokeColor=#D6B656;" parent="450I2jvUaUmtoyAgRjkF-0" vertex="1">
          <mxGeometry x="180" y="1050" width="120" height="50" as="geometry" />
        </mxCell>
        <mxCell id="VaKd6Z0m2Zi934vndcKF-2" value="" style="endArrow=classic;html=1;" parent="450I2jvUaUmtoyAgRjkF-0" source="450I2jvUaUmtoyAgRjkF-6" target="450I2jvUaUmtoyAgRjkF-10" edge="1">
          <mxGeometry width="50" height="50" relative="1" as="geometry">
            <mxPoint x="120" y="200" as="sourcePoint" />
            <mxPoint x="170" y="150" as="targetPoint" />
          </mxGeometry>
        </mxCell>
        <mxCell id="mMcfcK8xkYXfSGvDi10W-3" value="verifier loyer" style="ellipse;whiteSpace=wrap;html=1;fillColor=#fff2cc;strokeColor=#d6b656;fontColor=default;" parent="450I2jvUaUmtoyAgRjkF-0" vertex="1">
          <mxGeometry x="140" y="590" width="120" height="50" as="geometry" />
        </mxCell>
        <mxCell id="fqPnqMquBYUFKSsKY0oJ-6" style="edgeStyle=orthogonalEdgeStyle;rounded=0;orthogonalLoop=1;jettySize=auto;html=1;entryX=1;entryY=0.5;entryDx=0;entryDy=0;fontSize=14;" edge="1" parent="450I2jvUaUmtoyAgRjkF-0" source="iCTNZIVyQKOE3rdllfrv-3" target="TSdeb8TSLL2Ijhmt7mgY-2">
          <mxGeometry relative="1" as="geometry" />
        </mxCell>
        <mxCell id="iCTNZIVyQKOE3rdllfrv-3" value="Faire une requête" style="ellipse;whiteSpace=wrap;html=1;fillColor=#FFF2CC;strokeColor=#D6B656;" parent="450I2jvUaUmtoyAgRjkF-0" vertex="1">
          <mxGeometry x="920" y="907.5" width="100" height="55" as="geometry" />
        </mxCell>
        <mxCell id="dziR4XV_cKB3fMdr3IpO-1" value="&lt;font style=&quot;font-size: 15px&quot;&gt;&lt;b&gt;Extends&lt;/b&gt;&lt;/font&gt;" style="edgeStyle=orthogonalEdgeStyle;rounded=0;orthogonalLoop=1;jettySize=auto;html=1;entryX=1;entryY=0.5;entryDx=0;entryDy=0;" parent="450I2jvUaUmtoyAgRjkF-0" source="dziR4XV_cKB3fMdr3IpO-0" target="mMcfcK8xkYXfSGvDi10W-3" edge="1">
          <mxGeometry relative="1" as="geometry">
            <Array as="points">
              <mxPoint x="340" y="615" />
              <mxPoint x="340" y="615" />
            </Array>
          </mxGeometry>
        </mxCell>
        <mxCell id="dziR4XV_cKB3fMdr3IpO-0" value="envoyer notification de retard" style="ellipse;whiteSpace=wrap;html=1;fillColor=#fff2cc;strokeColor=#d6b656;fontColor=default;" parent="450I2jvUaUmtoyAgRjkF-0" vertex="1">
          <mxGeometry x="410" y="590" width="120" height="50" as="geometry" />
        </mxCell>
        <mxCell id="fqPnqMquBYUFKSsKY0oJ-7" value="Consulter informations du bien" style="ellipse;whiteSpace=wrap;html=1;fillColor=#FFF2CC;strokeColor=#D6B656;" vertex="1" parent="450I2jvUaUmtoyAgRjkF-0">
          <mxGeometry x="970" y="687" width="120" height="50" as="geometry" />
        </mxCell>
        <mxCell id="450I2jvUaUmtoyAgRjkF-25" style="edgeStyle=orthogonalEdgeStyle;rounded=0;orthogonalLoop=1;jettySize=auto;html=1;entryX=0;entryY=0.5;entryDx=0;entryDy=0;startArrow=none;startFill=0;endArrow=none;endFill=0;strokeColor=default;exitX=0.568;exitY=0.639;exitDx=0;exitDy=0;exitPerimeter=0;" parent="_1lMrd184p0aN324ZPrS-1" source="ic0GN346B41c5aWoy_H6-2" target="450I2jvUaUmtoyAgRjkF-6" edge="1">
          <mxGeometry relative="1" as="geometry" />
        </mxCell>
        <mxCell id="mMcfcK8xkYXfSGvDi10W-4" style="edgeStyle=orthogonalEdgeStyle;rounded=0;orthogonalLoop=1;jettySize=auto;html=1;entryX=0;entryY=0.5;entryDx=0;entryDy=0;" parent="_1lMrd184p0aN324ZPrS-1" source="ic0GN346B41c5aWoy_H6-2" target="mMcfcK8xkYXfSGvDi10W-3" edge="1">
          <mxGeometry relative="1" as="geometry">
            <Array as="points">
              <mxPoint x="265" y="655" />
            </Array>
            <mxPoint x="190" y="280" as="sourcePoint" />
          </mxGeometry>
        </mxCell>
        <mxCell id="mMcfcK8xkYXfSGvDi10W-14" style="edgeStyle=orthogonalEdgeStyle;rounded=0;orthogonalLoop=1;jettySize=auto;html=1;entryX=0.5;entryY=0;entryDx=0;entryDy=0;" parent="_1lMrd184p0aN324ZPrS-1" source="ic0GN346B41c5aWoy_H6-2" target="mMcfcK8xkYXfSGvDi10W-13" edge="1">
          <mxGeometry relative="1" as="geometry">
            <Array as="points">
              <mxPoint x="265" y="270" />
              <mxPoint x="460" y="270" />
            </Array>
            <mxPoint x="210" y="200" as="sourcePoint" />
            <mxPoint x="380" y="380" as="targetPoint" />
          </mxGeometry>
        </mxCell>
        <mxCell id="mMcfcK8xkYXfSGvDi10W-29" style="edgeStyle=orthogonalEdgeStyle;rounded=0;orthogonalLoop=1;jettySize=auto;html=1;entryX=0.5;entryY=0;entryDx=0;entryDy=0;" parent="_1lMrd184p0aN324ZPrS-1" source="ic0GN346B41c5aWoy_H6-2" target="mMcfcK8xkYXfSGvDi10W-25" edge="1">
          <mxGeometry relative="1" as="geometry">
            <Array as="points">
              <mxPoint x="265" y="270" />
              <mxPoint x="900" y="270" />
            </Array>
            <mxPoint x="200" y="230" as="sourcePoint" />
          </mxGeometry>
        </mxCell>
        <mxCell id="TSdeb8TSLL2Ijhmt7mgY-3" style="edgeStyle=orthogonalEdgeStyle;rounded=0;orthogonalLoop=1;jettySize=auto;html=1;entryX=0;entryY=0.5;entryDx=0;entryDy=0;endArrow=none;endFill=0;" parent="_1lMrd184p0aN324ZPrS-1" source="ic0GN346B41c5aWoy_H6-2" target="TSdeb8TSLL2Ijhmt7mgY-2" edge="1">
          <mxGeometry relative="1" as="geometry">
            <Array as="points">
              <mxPoint x="265" y="1025" />
            </Array>
            <mxPoint x="210" y="210" as="sourcePoint" />
          </mxGeometry>
        </mxCell>
        <mxCell id="ic0GN346B41c5aWoy_H6-1" style="edgeStyle=orthogonalEdgeStyle;rounded=0;orthogonalLoop=1;jettySize=auto;html=1;entryX=0;entryY=0.5;entryDx=0;entryDy=0;fontSize=15;endArrow=none;endFill=0;" parent="_1lMrd184p0aN324ZPrS-1" source="ic0GN346B41c5aWoy_H6-2" target="mMcfcK8xkYXfSGvDi10W-38" edge="1">
          <mxGeometry relative="1" as="geometry">
            <mxPoint x="230" y="240" as="sourcePoint" />
            <Array as="points">
              <mxPoint x="265" y="765" />
            </Array>
          </mxGeometry>
        </mxCell>
        <mxCell id="ic0GN346B41c5aWoy_H6-6" value="" style="edgeStyle=orthogonalEdgeStyle;rounded=0;orthogonalLoop=1;jettySize=auto;html=1;fontSize=15;endArrow=none;endFill=0;exitX=0.541;exitY=0.432;exitDx=0;exitDy=0;exitPerimeter=0;" parent="_1lMrd184p0aN324ZPrS-1" source="ic0GN346B41c5aWoy_H6-2" edge="1">
          <mxGeometry relative="1" as="geometry">
            <mxPoint x="180" y="220" as="sourcePoint" />
            <mxPoint x="265.0344827586207" y="255" as="targetPoint" />
          </mxGeometry>
        </mxCell>
        <mxCell id="450I2jvUaUmtoyAgRjkF-2" value="Propriétaire" style="shape=umlActor;verticalLabelPosition=bottom;verticalAlign=top;html=1;" parent="_1lMrd184p0aN324ZPrS-1" vertex="1">
          <mxGeometry x="250" y="60" width="30" height="60" as="geometry" />
        </mxCell>
        <mxCell id="450I2jvUaUmtoyAgRjkF-21" style="edgeStyle=orthogonalEdgeStyle;rounded=0;orthogonalLoop=1;jettySize=auto;html=1;entryX=1;entryY=0.5;entryDx=0;entryDy=0;exitX=0.515;exitY=0.69;exitDx=0;exitDy=0;exitPerimeter=0;" parent="_1lMrd184p0aN324ZPrS-1" source="ic0GN346B41c5aWoy_H6-9" target="450I2jvUaUmtoyAgRjkF-19" edge="1">
          <mxGeometry relative="1" as="geometry">
            <Array as="points">
              <mxPoint x="1605" y="690" />
              <mxPoint x="1360" y="690" />
            </Array>
            <mxPoint x="1710" y="280" as="sourcePoint" />
          </mxGeometry>
        </mxCell>
        <mxCell id="mMcfcK8xkYXfSGvDi10W-0" style="edgeStyle=orthogonalEdgeStyle;rounded=0;orthogonalLoop=1;jettySize=auto;html=1;" parent="_1lMrd184p0aN324ZPrS-1" source="ic0GN346B41c5aWoy_H6-9" edge="1">
          <mxGeometry relative="1" as="geometry">
            <Array as="points">
              <mxPoint x="1605" y="920" />
            </Array>
            <mxPoint x="1710" y="500" as="sourcePoint" />
            <mxPoint x="1450" y="920" as="targetPoint" />
          </mxGeometry>
        </mxCell>
        <mxCell id="mMcfcK8xkYXfSGvDi10W-37" style="edgeStyle=orthogonalEdgeStyle;rounded=0;orthogonalLoop=1;jettySize=auto;html=1;entryX=1;entryY=0.5;entryDx=0;entryDy=0;exitX=0.755;exitY=0.41;exitDx=0;exitDy=0;exitPerimeter=0;" parent="_1lMrd184p0aN324ZPrS-1" source="ic0GN346B41c5aWoy_H6-9" target="mMcfcK8xkYXfSGvDi10W-36" edge="1">
          <mxGeometry relative="1" as="geometry">
            <Array as="points">
              <mxPoint x="1605" y="565" />
            </Array>
            <mxPoint x="1680" y="320" as="sourcePoint" />
          </mxGeometry>
        </mxCell>
        <mxCell id="450I2jvUaUmtoyAgRjkF-3" value="Locataire" style="shape=umlActor;verticalLabelPosition=bottom;verticalAlign=top;html=1;" parent="_1lMrd184p0aN324ZPrS-1" vertex="1">
          <mxGeometry x="1590" y="100" width="30" height="60" as="geometry" />
        </mxCell>
        <mxCell id="ic0GN346B41c5aWoy_H6-2" value="" style="shape=waypoint;sketch=0;fillStyle=solid;size=6;pointerEvents=1;points=[];fillColor=none;resizable=0;rotatable=0;perimeter=centerPerimeter;snapToPoint=1;fontSize=15;" parent="_1lMrd184p0aN324ZPrS-1" vertex="1">
          <mxGeometry x="245" y="125" width="40" height="40" as="geometry" />
        </mxCell>
        <mxCell id="iCTNZIVyQKOE3rdllfrv-4" style="edgeStyle=orthogonalEdgeStyle;rounded=0;orthogonalLoop=1;jettySize=auto;html=1;" parent="_1lMrd184p0aN324ZPrS-1" source="ic0GN346B41c5aWoy_H6-9" target="iCTNZIVyQKOE3rdllfrv-3" edge="1">
          <mxGeometry relative="1" as="geometry">
            <Array as="points">
              <mxPoint x="1605" y="1025" />
            </Array>
          </mxGeometry>
        </mxCell>
        <mxCell id="fqPnqMquBYUFKSsKY0oJ-9" style="edgeStyle=orthogonalEdgeStyle;rounded=0;orthogonalLoop=1;jettySize=auto;html=1;fontSize=14;" edge="1" parent="_1lMrd184p0aN324ZPrS-1" source="ic0GN346B41c5aWoy_H6-9" target="fqPnqMquBYUFKSsKY0oJ-7">
          <mxGeometry relative="1" as="geometry">
            <Array as="points">
              <mxPoint x="1605" y="802" />
            </Array>
          </mxGeometry>
        </mxCell>
        <mxCell id="ic0GN346B41c5aWoy_H6-9" value="" style="shape=waypoint;sketch=0;fillStyle=solid;size=6;pointerEvents=1;points=[];fillColor=none;resizable=0;rotatable=0;perimeter=centerPerimeter;snapToPoint=1;fontSize=15;" parent="_1lMrd184p0aN324ZPrS-1" vertex="1">
          <mxGeometry x="1585" y="180" width="40" height="40" as="geometry" />
        </mxCell>
      </root>
    </mxGraphModel>
  </diagram>
  <diagram id="5GqL1yBt6GKVH9OxMdS_" name="Hiérarchie de l&#39;appli">
    <mxGraphModel dx="2142" dy="2179" grid="1" gridSize="10" guides="1" tooltips="1" connect="1" arrows="1" fold="1" page="1" pageScale="1" pageWidth="850" pageHeight="1100" math="0" shadow="0">
      <root>
        <mxCell id="2PtMCe5UgdZqWsswR74V-0" />
        <mxCell id="2PtMCe5UgdZqWsswR74V-1" parent="2PtMCe5UgdZqWsswR74V-0" />
        <mxCell id="2PtMCe5UgdZqWsswR74V-9" style="edgeStyle=orthogonalEdgeStyle;rounded=0;orthogonalLoop=1;jettySize=auto;html=1;entryX=0.5;entryY=1;entryDx=0;entryDy=0;" parent="2PtMCe5UgdZqWsswR74V-1" source="2PtMCe5UgdZqWsswR74V-5" target="2PtMCe5UgdZqWsswR74V-8" edge="1">
          <mxGeometry relative="1" as="geometry" />
        </mxCell>
        <mxCell id="2PtMCe5UgdZqWsswR74V-21" value="C&#39;est quoi Co-lock" style="edgeLabel;html=1;align=center;verticalAlign=middle;resizable=0;points=[];" parent="2PtMCe5UgdZqWsswR74V-9" vertex="1" connectable="0">
          <mxGeometry x="0.032" y="-3" relative="1" as="geometry">
            <mxPoint as="offset" />
          </mxGeometry>
        </mxCell>
        <mxCell id="2PtMCe5UgdZqWsswR74V-13" style="edgeStyle=orthogonalEdgeStyle;rounded=0;orthogonalLoop=1;jettySize=auto;html=1;entryX=0.5;entryY=0;entryDx=0;entryDy=0;" parent="2PtMCe5UgdZqWsswR74V-1" source="2PtMCe5UgdZqWsswR74V-5" target="2PtMCe5UgdZqWsswR74V-12" edge="1">
          <mxGeometry relative="1" as="geometry">
            <Array as="points">
              <mxPoint x="380" y="130" />
              <mxPoint x="340" y="130" />
              <mxPoint x="340" y="160" />
            </Array>
          </mxGeometry>
        </mxCell>
        <mxCell id="2PtMCe5UgdZqWsswR74V-20" value="Se connecter" style="edgeLabel;html=1;align=center;verticalAlign=middle;resizable=0;points=[];" parent="2PtMCe5UgdZqWsswR74V-13" vertex="1" connectable="0">
          <mxGeometry x="0.3514" y="-4" relative="1" as="geometry">
            <mxPoint x="14" as="offset" />
          </mxGeometry>
        </mxCell>
        <mxCell id="2PtMCe5UgdZqWsswR74V-19" style="edgeStyle=orthogonalEdgeStyle;rounded=0;orthogonalLoop=1;jettySize=auto;html=1;entryX=0.5;entryY=0;entryDx=0;entryDy=0;" parent="2PtMCe5UgdZqWsswR74V-1" source="2PtMCe5UgdZqWsswR74V-5" target="2PtMCe5UgdZqWsswR74V-18" edge="1">
          <mxGeometry relative="1" as="geometry">
            <Array as="points">
              <mxPoint x="380" y="130" />
              <mxPoint x="660" y="130" />
            </Array>
          </mxGeometry>
        </mxCell>
        <mxCell id="2PtMCe5UgdZqWsswR74V-58" value="s&#39;inscrire" style="edgeLabel;html=1;align=center;verticalAlign=middle;resizable=0;points=[];" parent="2PtMCe5UgdZqWsswR74V-19" vertex="1" connectable="0">
          <mxGeometry x="-0.3428" y="3" relative="1" as="geometry">
            <mxPoint x="-1" as="offset" />
          </mxGeometry>
        </mxCell>
        <mxCell id="2PtMCe5UgdZqWsswR74V-5" value="3" style="rounded=0;whiteSpace=wrap;html=1;" parent="2PtMCe5UgdZqWsswR74V-1" vertex="1">
          <mxGeometry x="360" y="40" width="40" height="40" as="geometry" />
        </mxCell>
        <mxCell id="2PtMCe5UgdZqWsswR74V-7" value="Page Acceuil" style="text;html=1;strokeColor=none;fillColor=none;align=center;verticalAlign=middle;whiteSpace=wrap;rounded=0;" parent="2PtMCe5UgdZqWsswR74V-1" vertex="1">
          <mxGeometry x="400" y="45" width="110" height="30" as="geometry" />
        </mxCell>
        <mxCell id="2PtMCe5UgdZqWsswR74V-11" style="edgeStyle=orthogonalEdgeStyle;rounded=0;orthogonalLoop=1;jettySize=auto;html=1;entryX=0.5;entryY=0;entryDx=0;entryDy=0;" parent="2PtMCe5UgdZqWsswR74V-1" source="2PtMCe5UgdZqWsswR74V-8" target="2PtMCe5UgdZqWsswR74V-5" edge="1">
          <mxGeometry relative="1" as="geometry" />
        </mxCell>
        <mxCell id="2PtMCe5UgdZqWsswR74V-8" value="2" style="rounded=0;whiteSpace=wrap;html=1;" parent="2PtMCe5UgdZqWsswR74V-1" vertex="1">
          <mxGeometry x="160" width="40" height="40" as="geometry" />
        </mxCell>
        <mxCell id="2PtMCe5UgdZqWsswR74V-10" value="Slides Explicatifs&amp;nbsp;" style="text;html=1;strokeColor=none;fillColor=none;align=center;verticalAlign=middle;whiteSpace=wrap;rounded=0;" parent="2PtMCe5UgdZqWsswR74V-1" vertex="1">
          <mxGeometry x="200" y="-2" width="110" height="30" as="geometry" />
        </mxCell>
        <mxCell id="2PtMCe5UgdZqWsswR74V-59" style="edgeStyle=orthogonalEdgeStyle;rounded=0;orthogonalLoop=1;jettySize=auto;html=1;entryX=0;entryY=0.5;entryDx=0;entryDy=0;strokeColor=#000000;" parent="2PtMCe5UgdZqWsswR74V-1" source="2PtMCe5UgdZqWsswR74V-12" target="2PtMCe5UgdZqWsswR74V-45" edge="1">
          <mxGeometry relative="1" as="geometry">
            <Array as="points">
              <mxPoint x="340" y="380" />
              <mxPoint x="690" y="380" />
              <mxPoint x="690" y="420" />
            </Array>
          </mxGeometry>
        </mxCell>
        <mxCell id="2PtMCe5UgdZqWsswR74V-60" style="edgeStyle=orthogonalEdgeStyle;rounded=0;orthogonalLoop=1;jettySize=auto;html=1;entryX=0;entryY=0.5;entryDx=0;entryDy=0;strokeColor=#000000;" parent="2PtMCe5UgdZqWsswR74V-1" source="2PtMCe5UgdZqWsswR74V-12" target="2PtMCe5UgdZqWsswR74V-41" edge="1">
          <mxGeometry relative="1" as="geometry">
            <Array as="points">
              <mxPoint x="340" y="420" />
            </Array>
          </mxGeometry>
        </mxCell>
        <mxCell id="2PtMCe5UgdZqWsswR74V-12" value="2" style="rounded=0;whiteSpace=wrap;html=1;" parent="2PtMCe5UgdZqWsswR74V-1" vertex="1">
          <mxGeometry x="320" y="330" width="40" height="40" as="geometry" />
        </mxCell>
        <mxCell id="2PtMCe5UgdZqWsswR74V-30" value="Locataire" style="edgeStyle=orthogonalEdgeStyle;rounded=0;orthogonalLoop=1;jettySize=auto;html=1;entryX=0.5;entryY=0;entryDx=0;entryDy=0;strokeColor=#000000;" parent="2PtMCe5UgdZqWsswR74V-1" source="2PtMCe5UgdZqWsswR74V-18" target="2PtMCe5UgdZqWsswR74V-28" edge="1">
          <mxGeometry x="0.125" relative="1" as="geometry">
            <Array as="points">
              <mxPoint x="660" y="240" />
              <mxPoint x="740" y="240" />
            </Array>
            <mxPoint as="offset" />
          </mxGeometry>
        </mxCell>
        <mxCell id="2PtMCe5UgdZqWsswR74V-31" style="edgeStyle=orthogonalEdgeStyle;rounded=0;orthogonalLoop=1;jettySize=auto;html=1;entryX=0.5;entryY=0;entryDx=0;entryDy=0;strokeColor=#000000;" parent="2PtMCe5UgdZqWsswR74V-1" source="2PtMCe5UgdZqWsswR74V-18" target="2PtMCe5UgdZqWsswR74V-29" edge="1">
          <mxGeometry relative="1" as="geometry">
            <Array as="points">
              <mxPoint x="660" y="240" />
              <mxPoint x="580" y="240" />
            </Array>
          </mxGeometry>
        </mxCell>
        <mxCell id="2PtMCe5UgdZqWsswR74V-35" value="Propriétaire" style="edgeLabel;html=1;align=center;verticalAlign=middle;resizable=0;points=[];" parent="2PtMCe5UgdZqWsswR74V-31" vertex="1" connectable="0">
          <mxGeometry x="0.355" y="1" relative="1" as="geometry">
            <mxPoint x="18" as="offset" />
          </mxGeometry>
        </mxCell>
        <mxCell id="2PtMCe5UgdZqWsswR74V-32" style="edgeStyle=orthogonalEdgeStyle;rounded=0;orthogonalLoop=1;jettySize=auto;html=1;entryX=1;entryY=0.5;entryDx=0;entryDy=0;strokeColor=#000000;dashed=1;" parent="2PtMCe5UgdZqWsswR74V-1" source="2PtMCe5UgdZqWsswR74V-18" target="2PtMCe5UgdZqWsswR74V-12" edge="1">
          <mxGeometry relative="1" as="geometry" />
        </mxCell>
        <mxCell id="2PtMCe5UgdZqWsswR74V-18" value="4" style="rounded=0;whiteSpace=wrap;html=1;" parent="2PtMCe5UgdZqWsswR74V-1" vertex="1">
          <mxGeometry x="640" y="160" width="40" height="40" as="geometry" />
        </mxCell>
        <mxCell id="2PtMCe5UgdZqWsswR74V-22" value="" style="curved=1;endArrow=classic;html=1;rounded=0;exitX=0.5;exitY=0;exitDx=0;exitDy=0;entryX=0;entryY=1;entryDx=0;entryDy=0;strokeColor=#FF3021;" parent="2PtMCe5UgdZqWsswR74V-1" source="2PtMCe5UgdZqWsswR74V-12" target="2PtMCe5UgdZqWsswR74V-5" edge="1">
          <mxGeometry width="50" height="50" relative="1" as="geometry">
            <mxPoint x="90" y="110" as="sourcePoint" />
            <mxPoint x="140" y="60" as="targetPoint" />
            <Array as="points">
              <mxPoint x="280" y="130" />
              <mxPoint x="290" y="110" />
              <mxPoint x="290" y="90" />
            </Array>
          </mxGeometry>
        </mxCell>
        <mxCell id="2PtMCe5UgdZqWsswR74V-23" value="retour" style="edgeLabel;html=1;align=center;verticalAlign=middle;resizable=0;points=[];" parent="2PtMCe5UgdZqWsswR74V-22" vertex="1" connectable="0">
          <mxGeometry x="-0.0942" relative="1" as="geometry">
            <mxPoint as="offset" />
          </mxGeometry>
        </mxCell>
        <mxCell id="2PtMCe5UgdZqWsswR74V-27" value="" style="rounded=0;whiteSpace=wrap;html=1;" parent="2PtMCe5UgdZqWsswR74V-1" vertex="1">
          <mxGeometry x="435" y="660" width="40" height="40" as="geometry" />
        </mxCell>
        <mxCell id="2PtMCe5UgdZqWsswR74V-46" value="S&#39;inscrire" style="edgeStyle=orthogonalEdgeStyle;rounded=0;orthogonalLoop=1;jettySize=auto;html=1;strokeColor=#82b366;fillColor=#d5e8d4;" parent="2PtMCe5UgdZqWsswR74V-1" source="2PtMCe5UgdZqWsswR74V-28" target="2PtMCe5UgdZqWsswR74V-45" edge="1">
          <mxGeometry relative="1" as="geometry" />
        </mxCell>
        <mxCell id="2PtMCe5UgdZqWsswR74V-28" value="2" style="rounded=0;whiteSpace=wrap;html=1;" parent="2PtMCe5UgdZqWsswR74V-1" vertex="1">
          <mxGeometry x="720" y="280" width="40" height="40" as="geometry" />
        </mxCell>
        <mxCell id="2PtMCe5UgdZqWsswR74V-42" value="S&#39;inscrire" style="edgeStyle=orthogonalEdgeStyle;rounded=0;orthogonalLoop=1;jettySize=auto;html=1;entryX=0.5;entryY=0;entryDx=0;entryDy=0;" parent="2PtMCe5UgdZqWsswR74V-1" source="2PtMCe5UgdZqWsswR74V-29" target="2PtMCe5UgdZqWsswR74V-41" edge="1">
          <mxGeometry relative="1" as="geometry" />
        </mxCell>
        <mxCell id="2PtMCe5UgdZqWsswR74V-29" value="2" style="rounded=0;whiteSpace=wrap;html=1;" parent="2PtMCe5UgdZqWsswR74V-1" vertex="1">
          <mxGeometry x="560" y="280" width="40" height="40" as="geometry" />
        </mxCell>
        <mxCell id="2PtMCe5UgdZqWsswR74V-33" value="" style="curved=1;endArrow=classic;html=1;rounded=0;exitX=0.5;exitY=0;exitDx=0;exitDy=0;entryX=1;entryY=1;entryDx=0;entryDy=0;strokeColor=#FF3021;" parent="2PtMCe5UgdZqWsswR74V-1" source="2PtMCe5UgdZqWsswR74V-18" target="2PtMCe5UgdZqWsswR74V-5" edge="1">
          <mxGeometry width="50" height="50" relative="1" as="geometry">
            <mxPoint x="540" y="170" as="sourcePoint" />
            <mxPoint x="720" y="90" as="targetPoint" />
            <Array as="points">
              <mxPoint x="580" y="110" />
              <mxPoint x="550" y="100" />
            </Array>
          </mxGeometry>
        </mxCell>
        <mxCell id="2PtMCe5UgdZqWsswR74V-34" value="retour" style="edgeLabel;html=1;align=center;verticalAlign=middle;resizable=0;points=[];" parent="2PtMCe5UgdZqWsswR74V-33" vertex="1" connectable="0">
          <mxGeometry x="-0.0942" relative="1" as="geometry">
            <mxPoint as="offset" />
          </mxGeometry>
        </mxCell>
        <mxCell id="2PtMCe5UgdZqWsswR74V-38" value="" style="curved=1;endArrow=classic;html=1;rounded=0;strokeColor=#b85450;entryX=0;entryY=1;entryDx=0;entryDy=0;exitX=0.5;exitY=0;exitDx=0;exitDy=0;fillColor=#f8cecc;" parent="2PtMCe5UgdZqWsswR74V-1" source="2PtMCe5UgdZqWsswR74V-29" target="2PtMCe5UgdZqWsswR74V-18" edge="1">
          <mxGeometry width="50" height="50" relative="1" as="geometry">
            <mxPoint x="420" y="290" as="sourcePoint" />
            <mxPoint x="470" y="240" as="targetPoint" />
            <Array as="points">
              <mxPoint x="550" y="240" />
              <mxPoint x="610" y="190" />
            </Array>
          </mxGeometry>
        </mxCell>
        <mxCell id="2PtMCe5UgdZqWsswR74V-69" value="Mon compte" style="edgeStyle=orthogonalEdgeStyle;rounded=0;orthogonalLoop=1;jettySize=auto;html=1;entryX=0.5;entryY=0;entryDx=0;entryDy=0;strokeColor=#000000;" parent="2PtMCe5UgdZqWsswR74V-1" source="2PtMCe5UgdZqWsswR74V-41" target="2PtMCe5UgdZqWsswR74V-27" edge="1">
          <mxGeometry x="-0.0241" relative="1" as="geometry">
            <Array as="points">
              <mxPoint x="580" y="530" />
              <mxPoint x="455" y="530" />
            </Array>
            <mxPoint as="offset" />
          </mxGeometry>
        </mxCell>
        <mxCell id="2PtMCe5UgdZqWsswR74V-72" value="Biens" style="edgeStyle=orthogonalEdgeStyle;rounded=0;orthogonalLoop=1;jettySize=auto;html=1;entryX=0.5;entryY=0;entryDx=0;entryDy=0;strokeColor=#000000;" parent="2PtMCe5UgdZqWsswR74V-1" source="2PtMCe5UgdZqWsswR74V-41" target="2PtMCe5UgdZqWsswR74V-70" edge="1">
          <mxGeometry relative="1" as="geometry" />
        </mxCell>
        <mxCell id="2PtMCe5UgdZqWsswR74V-73" value="Plaintes" style="edgeStyle=orthogonalEdgeStyle;rounded=0;orthogonalLoop=1;jettySize=auto;html=1;entryX=0.5;entryY=0;entryDx=0;entryDy=0;strokeColor=#000000;" parent="2PtMCe5UgdZqWsswR74V-1" source="2PtMCe5UgdZqWsswR74V-41" target="2PtMCe5UgdZqWsswR74V-67" edge="1">
          <mxGeometry relative="1" as="geometry">
            <Array as="points">
              <mxPoint x="580" y="500" />
              <mxPoint x="380" y="500" />
            </Array>
          </mxGeometry>
        </mxCell>
        <mxCell id="2PtMCe5UgdZqWsswR74V-77" style="edgeStyle=orthogonalEdgeStyle;rounded=0;orthogonalLoop=1;jettySize=auto;html=1;entryX=0.5;entryY=0;entryDx=0;entryDy=0;strokeColor=#000000;" parent="2PtMCe5UgdZqWsswR74V-1" source="2PtMCe5UgdZqWsswR74V-41" target="2PtMCe5UgdZqWsswR74V-76" edge="1">
          <mxGeometry relative="1" as="geometry" />
        </mxCell>
        <mxCell id="2PtMCe5UgdZqWsswR74V-78" style="edgeStyle=orthogonalEdgeStyle;rounded=0;orthogonalLoop=1;jettySize=auto;html=1;entryX=0.5;entryY=0;entryDx=0;entryDy=0;strokeColor=#000000;" parent="2PtMCe5UgdZqWsswR74V-1" source="2PtMCe5UgdZqWsswR74V-41" target="2PtMCe5UgdZqWsswR74V-75" edge="1">
          <mxGeometry relative="1" as="geometry">
            <Array as="points">
              <mxPoint x="580" y="530" />
              <mxPoint x="680" y="530" />
            </Array>
          </mxGeometry>
        </mxCell>
        <mxCell id="2PtMCe5UgdZqWsswR74V-41" value="vide" style="rounded=0;whiteSpace=wrap;html=1;fillColor=#d5e8d4;strokeColor=#82b366;" parent="2PtMCe5UgdZqWsswR74V-1" vertex="1">
          <mxGeometry x="560" y="400" width="40" height="40" as="geometry" />
        </mxCell>
        <mxCell id="2PtMCe5UgdZqWsswR74V-44" value="" style="curved=1;endArrow=classic;html=1;rounded=0;strokeColor=#b85450;exitX=0.5;exitY=0;exitDx=0;exitDy=0;entryX=1;entryY=1;entryDx=0;entryDy=0;fillColor=#f8cecc;" parent="2PtMCe5UgdZqWsswR74V-1" source="2PtMCe5UgdZqWsswR74V-28" target="2PtMCe5UgdZqWsswR74V-18" edge="1">
          <mxGeometry width="50" height="50" relative="1" as="geometry">
            <mxPoint x="770" y="240" as="sourcePoint" />
            <mxPoint x="820" y="190" as="targetPoint" />
            <Array as="points">
              <mxPoint x="760" y="250" />
              <mxPoint x="730" y="220" />
            </Array>
          </mxGeometry>
        </mxCell>
        <mxCell id="2PtMCe5UgdZqWsswR74V-45" value="" style="rounded=0;whiteSpace=wrap;html=1;" parent="2PtMCe5UgdZqWsswR74V-1" vertex="1">
          <mxGeometry x="720" y="400" width="40" height="40" as="geometry" />
        </mxCell>
        <mxCell id="2PtMCe5UgdZqWsswR74V-54" value="Faut réussir à créer une distinction entre la connexion du Locataire et du propriétaire" style="text;html=1;strokeColor=none;fillColor=none;align=center;verticalAlign=middle;whiteSpace=wrap;rounded=0;" parent="2PtMCe5UgdZqWsswR74V-1" vertex="1">
          <mxGeometry x="90" y="300" width="150" height="50" as="geometry" />
        </mxCell>
        <mxCell id="2PtMCe5UgdZqWsswR74V-61" style="edgeStyle=orthogonalEdgeStyle;rounded=0;orthogonalLoop=1;jettySize=auto;html=1;strokeColor=#82b366;fillColor=#d5e8d4;" parent="2PtMCe5UgdZqWsswR74V-1" edge="1">
          <mxGeometry relative="1" as="geometry">
            <mxPoint x="649.94" y="-40" as="sourcePoint" />
            <mxPoint x="650" y="-40" as="targetPoint" />
            <Array as="points">
              <mxPoint x="559.94" y="-40" />
            </Array>
          </mxGeometry>
        </mxCell>
        <mxCell id="2PtMCe5UgdZqWsswR74V-62" value="Améné nul part&amp;nbsp;" style="text;html=1;strokeColor=none;fillColor=none;align=center;verticalAlign=middle;whiteSpace=wrap;rounded=0;" parent="2PtMCe5UgdZqWsswR74V-1" vertex="1">
          <mxGeometry x="660" y="-60" width="110" height="30" as="geometry" />
        </mxCell>
        <mxCell id="2PtMCe5UgdZqWsswR74V-63" style="edgeStyle=orthogonalEdgeStyle;rounded=0;orthogonalLoop=1;jettySize=auto;html=1;strokeColor=#b85450;fillColor=#f8cecc;" parent="2PtMCe5UgdZqWsswR74V-1" edge="1">
          <mxGeometry relative="1" as="geometry">
            <mxPoint x="650" y="-70" as="sourcePoint" />
            <mxPoint x="650.06" y="-70" as="targetPoint" />
            <Array as="points">
              <mxPoint x="560" y="-70" />
            </Array>
          </mxGeometry>
        </mxCell>
        <mxCell id="2PtMCe5UgdZqWsswR74V-64" value="option retour" style="text;html=1;strokeColor=none;fillColor=none;align=center;verticalAlign=middle;whiteSpace=wrap;rounded=0;" parent="2PtMCe5UgdZqWsswR74V-1" vertex="1">
          <mxGeometry x="650" y="-90" width="110" height="30" as="geometry" />
        </mxCell>
        <mxCell id="2PtMCe5UgdZqWsswR74V-65" value="" style="rounded=0;whiteSpace=wrap;html=1;" parent="2PtMCe5UgdZqWsswR74V-1" vertex="1">
          <mxGeometry x="910" y="280" width="40" height="40" as="geometry" />
        </mxCell>
        <mxCell id="2PtMCe5UgdZqWsswR74V-66" value="" style="rounded=0;whiteSpace=wrap;html=1;" parent="2PtMCe5UgdZqWsswR74V-1" vertex="1">
          <mxGeometry x="910" y="350" width="40" height="40" as="geometry" />
        </mxCell>
        <mxCell id="2PtMCe5UgdZqWsswR74V-67" value="" style="rounded=0;whiteSpace=wrap;html=1;" parent="2PtMCe5UgdZqWsswR74V-1" vertex="1">
          <mxGeometry x="360" y="660" width="40" height="40" as="geometry" />
        </mxCell>
        <mxCell id="2PtMCe5UgdZqWsswR74V-68" value="" style="rounded=0;whiteSpace=wrap;html=1;" parent="2PtMCe5UgdZqWsswR74V-1" vertex="1">
          <mxGeometry x="910" y="500" width="40" height="40" as="geometry" />
        </mxCell>
        <mxCell id="2PtMCe5UgdZqWsswR74V-70" value="" style="rounded=0;whiteSpace=wrap;html=1;" parent="2PtMCe5UgdZqWsswR74V-1" vertex="1">
          <mxGeometry x="520" y="660" width="40" height="40" as="geometry" />
        </mxCell>
        <mxCell id="2PtMCe5UgdZqWsswR74V-75" value="" style="rounded=0;whiteSpace=wrap;html=1;" parent="2PtMCe5UgdZqWsswR74V-1" vertex="1">
          <mxGeometry x="660" y="660" width="40" height="40" as="geometry" />
        </mxCell>
        <mxCell id="2PtMCe5UgdZqWsswR74V-76" value="" style="rounded=0;whiteSpace=wrap;html=1;" parent="2PtMCe5UgdZqWsswR74V-1" vertex="1">
          <mxGeometry x="590" y="660" width="40" height="40" as="geometry" />
        </mxCell>
      </root>
    </mxGraphModel>
  </diagram>
  <diagram id="e2U_4L_Uc0UZnkNTMuHk" name="Faire une requête">
    <mxGraphModel dx="2087" dy="1079" grid="1" gridSize="10" guides="1" tooltips="1" connect="1" arrows="1" fold="1" page="1" pageScale="1" pageWidth="1169" pageHeight="827" math="0" shadow="0">
      <root>
        <mxCell id="4FnnVqdCoPJqPLyLUks5-0" />
        <mxCell id="4FnnVqdCoPJqPLyLUks5-1" parent="4FnnVqdCoPJqPLyLUks5-0" />
        <mxCell id="IgT5QsKJjPnPi5cm5gFl-6" value="Propriétaire" style="swimlane;fontSize=14;strokeColor=#000000;fillColor=#FFFFFF;startSize=23;" vertex="1" parent="4FnnVqdCoPJqPLyLUks5-1">
          <mxGeometry x="40" y="50" width="350" height="750" as="geometry" />
        </mxCell>
        <mxCell id="IgT5QsKJjPnPi5cm5gFl-7" value="Système" style="swimlane;fontSize=14;strokeColor=#000000;fillColor=#FFFFFF;" vertex="1" parent="4FnnVqdCoPJqPLyLUks5-1">
          <mxGeometry x="390" y="50" width="360" height="750" as="geometry" />
        </mxCell>
        <mxCell id="IgT5QsKJjPnPi5cm5gFl-9" value="Locataire" style="swimlane;fontSize=14;strokeColor=#000000;fillColor=#FFFFFF;" vertex="1" parent="4FnnVqdCoPJqPLyLUks5-1">
          <mxGeometry x="750" y="50" width="360" height="750" as="geometry" />
        </mxCell>
        <mxCell id="IgT5QsKJjPnPi5cm5gFl-11" value="" style="strokeWidth=2;html=1;shape=mxgraph.flowchart.start_2;whiteSpace=wrap;fontSize=14;fillColor=#000000;strokeColor=#FF3333;" vertex="1" parent="IgT5QsKJjPnPi5cm5gFl-9">
          <mxGeometry x="150" y="60" width="40" height="40" as="geometry" />
        </mxCell>
        <mxCell id="IgT5QsKJjPnPi5cm5gFl-12" value="&lt;font style=&quot;font-size: 12px&quot;&gt;Le locataire rencontre un problème&lt;/font&gt;" style="text;html=1;strokeColor=none;fillColor=none;align=center;verticalAlign=middle;whiteSpace=wrap;rounded=0;fontSize=14;" vertex="1" parent="IgT5QsKJjPnPi5cm5gFl-9">
          <mxGeometry x="50" y="30" width="240" height="30" as="geometry" />
        </mxCell>
      </root>
    </mxGraphModel>
  </diagram>
</mxfile>
